<?xml version="1.0" encoding="UTF-8" standalone="no"?><svg id="Layer_1" data-name="Layer 1" xmlns="http://www.w3.org/2000/svg" xmlns:xlink="http://www.w3.org/1999/xlink" viewBox="0 0 500 500"><defs><style>.cls-1,.cls-28,.cls-29,.cls-30{fill:none;}.cls-2{fill:#190d2b;}.cls-15,.cls-2,.cls-23,.cls-26{opacity:0.3;}.cls-15,.cls-16,.cls-17,.cls-18,.cls-2,.cls-20,.cls-23,.cls-26,.cls-3{isolation:isolate;}.cls-4{fill:#e5e3e8;}.cls-5{clip-path:url(#clip-path);}.cls-6{fill:#d4ced8;}.cls-7{clip-path:url(#clip-path-2);}.cls-8{fill:#e0dde1;}.cls-9{fill:#f9f7fc;}.cls-10{fill:#251b29;}.cls-11{fill:#3d2f43;}.cls-12{clip-path:url(#clip-path-3);}.cls-13{clip-path:url(#clip-path-4);}.cls-14{fill:url(#linear-gradient);}.cls-15,.cls-17,.cls-22{fill:#93d3cc;}.cls-16{fill:#b7b5ba;opacity:0.5;}.cls-17,.cls-18,.cls-20,.cls-21{opacity:0.9;}.cls-18,.cls-24{fill:#22404d;}.cls-19{fill:#fff;}.cls-20,.cls-25{fill:#3b6e7f;}.cls-23{fill:#211338;}.cls-26{fill:#1e1133;}.cls-27{fill:#deb325;}.cls-28,.cls-29,.cls-30{stroke:#93d3cc;stroke-miterlimit:10;}.cls-28{stroke-width:0.2px;}.cls-30{stroke-width:0.5px;}</style><clipPath id="clip-path"><path class="cls-1" d="M419.15,335.79v6.5a2.34,2.34,0,0,1-1.43,2v-6.5A2.34,2.34,0,0,0,419.15,335.79Z"/></clipPath><clipPath id="clip-path-2"><path class="cls-1" d="M232.32,445.52V452a8,8,0,0,1-6.89,0v-6.5A7.2,7.2,0,0,0,232.32,445.52Z"/></clipPath><clipPath id="clip-path-3"><path class="cls-1" d="M252.73,113.86l5.2,0.78a2.68,2.68,0,0,0-2,.39l-5.2-.78A2.91,2.91,0,0,1,252.73,113.86Z"/></clipPath><clipPath id="clip-path-4"><path class="cls-1" d="M70.58,227.23l-5.2-.78c-0.65-2.34.39-5.2,2.21-6.24l5.2,0.78C71,221.9,70.06,224.76,70.58,227.23Z"/></clipPath><linearGradient id="linear-gradient" x1="144.35" y1="340.62" x2="230.47" y2="162.06" gradientTransform="matrix(1, 0, 0, -1, 0, 500)" gradientUnits="userSpaceOnUse"><stop offset="0" stop-color="#93d3cc"/><stop offset="1" stop-color="#22404d"/></linearGradient></defs><title>WARC passive income</title><path class="cls-2" d="M241.81,452.94L426.95,346.06a5.49,5.49,0,0,0,0-9.49L243.37,230.48,228.55,452.94h13.26Z"/><g class="cls-3"><g class="cls-3"><path id="SVGID" class="cls-4" d="M419.15,335.79v6.5a2.34,2.34,0,0,1-1.43,2v-6.5A2.34,2.34,0,0,0,419.15,335.79Z"/><g class="cls-5"><g class="cls-3"><path class="cls-4" d="M419.15,335.79v6.5a2.34,2.34,0,0,1-1.43,2v-6.5a2.34,2.34,0,0,0,1.43-2h0Z"/></g></g></g><path class="cls-4" d="M105.42,381.69v-6.5a2.34,2.34,0,0,0,1.43,2v6.5A2.19,2.19,0,0,1,105.42,381.69Z"/><polygon class="cls-4" points="417.72 337.87 417.72 344.37 232.19 452.15 232.32 445.52 417.72 337.87"/><path class="cls-6" d="M106.85,377.14a2.52,2.52,0,0,1-1.43-2v6.5a2.34,2.34,0,0,0,1.43,2L225.3,452v-6.5Z"/><g class="cls-3"><path id="SVGID-2" data-name="SVGID" class="cls-4" d="M232.32,445.52V452a8,8,0,0,1-6.89,0v-6.5A7.2,7.2,0,0,0,232.32,445.52Z"/><g class="cls-7"><path class="cls-8" d="M232.32,445.52V452a8,8,0,0,1-6.89,0v-6.5a7.2,7.2,0,0,0,6.89,0h0Z"/></g></g><path class="cls-9" d="M417.72,333.84c2,1,2,2.86,0,4L232.32,445.65a8,8,0,0,1-6.89,0L107,377.27c-2-1-2-2.86,0-4L292.25,265.46a8,8,0,0,1,6.89,0Z"/></g><g class="cls-3"><polygon class="cls-10" points="302.66 281.71 302.66 282.75 292.25 288.86 292.25 287.69 302.66 281.71"/><polygon class="cls-10" points="292.25 287.69 292.25 288.86 281.98 282.75 281.98 281.71 292.25 287.69"/></g><g class="cls-3"><polygon class="cls-10" points="289.65 289.25 289.65 290.29 279.38 296.27 279.38 295.23 289.65 289.25"/><polygon class="cls-10" points="279.38 295.23 279.38 296.27 268.98 290.29 268.98 289.25 279.38 295.23"/></g><g class="cls-3"><polygon class="cls-10" points="276.78 296.66 276.78 297.83 266.38 303.81 266.38 302.64 276.78 296.66"/><polygon class="cls-10" points="266.38 302.64 266.38 303.81 255.98 297.83 255.98 296.66 266.38 302.64"/></g><g class="cls-3"><polygon class="cls-10" points="263.78 304.2 263.78 305.37 253.51 311.35 253.51 310.18 263.78 304.2"/><polygon class="cls-10" points="253.51 310.18 253.51 311.35 243.11 305.37 243.11 304.2 253.51 310.18"/></g><g class="cls-3"><polygon class="cls-10" points="250.78 311.74 250.78 312.91 240.51 318.89 240.51 317.72 250.78 311.74"/><polygon class="cls-10" points="240.51 317.72 240.51 318.89 230.11 312.91 230.11 311.74 240.51 317.72"/></g><g class="cls-3"><polygon class="cls-10" points="237.91 319.28 237.91 320.45 227.51 326.43 227.51 325.26 237.91 319.28"/><polygon class="cls-10" points="227.51 325.26 227.51 326.43 217.24 320.45 217.24 319.28 227.51 325.26"/></g><g class="cls-3"><polygon class="cls-10" points="224.91 326.82 224.91 327.99 214.64 333.97 214.64 332.8 224.91 326.82"/><polygon class="cls-10" points="214.64 332.8 214.64 333.97 204.24 327.99 204.24 326.82 214.64 332.8"/></g><g class="cls-3"><polygon class="cls-10" points="212.04 334.36 212.04 335.53 201.63 341.51 201.63 340.34 212.04 334.36"/><polygon class="cls-10" points="201.63 340.34 201.63 341.51 191.23 335.53 191.23 334.36 201.63 340.34"/></g><g class="cls-3"><polygon class="cls-10" points="199.03 341.9 199.03 342.94 188.76 349.05 188.76 347.88 199.03 341.9"/><polygon class="cls-10" points="188.76 347.88 188.76 349.05 178.36 342.94 178.36 341.9 188.76 347.88"/></g><g class="cls-3"><polygon class="cls-10" points="186.03 349.44 186.03 350.49 175.76 356.46 175.76 355.43 186.03 349.44"/><polygon class="cls-10" points="175.76 355.43 175.76 356.46 165.36 350.49 165.36 349.44 175.76 355.43"/></g><g class="cls-3"><polygon class="cls-10" points="173.16 356.86 173.16 358.02 162.76 364.01 162.76 362.84 173.16 356.86"/><polygon class="cls-10" points="162.76 362.84 162.76 364.01 152.49 358.02 152.49 356.86 162.76 362.84"/></g><g class="cls-3"><polygon class="cls-10" points="160.16 364.4 160.16 365.57 149.89 371.55 149.89 370.38 160.16 364.4"/><polygon class="cls-10" points="149.89 370.38 149.89 371.55 139.49 365.57 139.49 364.4 149.89 370.38"/></g><g class="cls-3"><polygon class="cls-10" points="147.29 371.94 147.29 373.11 136.89 379.09 136.89 377.92 147.29 371.94"/><polygon class="cls-10" points="136.89 377.92 136.89 379.09 126.49 373.11 126.49 371.94 136.89 377.92"/></g><g class="cls-3"><polygon class="cls-10" points="315.01 289.51 315.01 290.68 294.07 302.77 294.07 301.73 315.01 289.51"/><polygon class="cls-10" points="294.07 301.73 294.07 302.77 283.67 296.79 283.67 295.75 294.07 301.73"/></g><g class="cls-3"><polygon class="cls-10" points="291.73 303.03 291.73 304.2 281.33 310.18 281.33 309.01 291.73 303.03"/><polygon class="cls-10" points="281.33 309.01 281.33 310.18 270.93 304.2 270.93 303.03 281.33 309.01"/></g><g class="cls-3"><polygon class="cls-10" points="279.38 310.18 279.38 311.35 268.98 317.33 268.98 316.16 279.38 310.18"/><polygon class="cls-10" points="268.98 316.16 268.98 317.33 258.58 311.35 258.58 310.18 268.98 316.16"/></g><g class="cls-3"><polygon class="cls-10" points="267.03 317.33 267.03 318.5 256.63 324.48 256.63 323.44 267.03 317.33"/><polygon class="cls-10" points="256.63 323.44 256.63 324.48 246.23 318.5 246.23 317.33 256.63 323.44"/></g><g class="cls-3"><polygon class="cls-10" points="254.55 324.61 254.55 325.65 244.28 331.76 244.28 330.59 254.55 324.61"/><polygon class="cls-10" points="244.28 330.59 244.28 331.76 233.88 325.65 233.88 324.61 244.28 330.59"/></g><g class="cls-3"><polygon class="cls-10" points="242.2 331.76 242.2 332.93 231.93 338.91 231.93 337.74 242.2 331.76"/><polygon class="cls-10" points="231.93 337.74 231.93 338.91 221.53 332.93 221.53 331.76 231.93 337.74"/></g><g class="cls-3"><polygon class="cls-10" points="229.85 338.91 229.85 340.08 219.58 346.06 219.58 344.89 229.85 338.91"/><polygon class="cls-10" points="219.58 344.89 219.58 346.06 209.18 340.08 209.18 338.91 219.58 344.89"/></g><g class="cls-3"><polygon class="cls-10" points="217.5 346.06 217.5 347.23 207.22 353.21 207.22 352.05 217.5 346.06"/><polygon class="cls-10" points="207.22 352.05 207.22 353.21 196.82 347.23 196.82 346.06 207.22 352.05"/></g><g class="cls-3"><polygon class="cls-10" points="205.15 353.35 205.15 354.38 194.87 360.37 194.87 359.33 205.15 353.35"/><polygon class="cls-10" points="194.87 359.33 194.87 360.37 184.47 354.38 184.47 353.35 194.87 359.33"/></g><g class="cls-3"><polygon class="cls-10" points="192.79 360.5 192.79 361.67 182.52 367.65 182.52 366.48 192.79 360.5"/><polygon class="cls-10" points="182.52 366.48 182.52 367.65 172.12 361.67 172.12 360.5 182.52 366.48"/></g><g class="cls-3"><polygon class="cls-10" points="180.44 367.65 180.44 368.82 170.17 374.8 170.17 373.63 180.44 367.65"/><polygon class="cls-10" points="170.17 373.63 170.17 374.8 159.77 368.82 159.77 367.65 170.17 373.63"/></g><g class="cls-3"><polygon class="cls-10" points="168.09 374.93 168.09 375.97 149.76 386.63 149.89 385.46 168.09 374.93"/><polygon class="cls-10" points="149.89 385.46 149.76 386.63 139.49 380.65 139.49 379.48 149.89 385.46"/></g><g class="cls-3"><polygon class="cls-10" points="328.01 296.92 328.01 298.09 301.88 313.3 301.88 312.13 328.01 296.92"/><polygon class="cls-10" points="301.88 312.13 301.88 313.3 291.47 307.32 291.47 306.15 301.88 312.13"/></g><g class="cls-3"><polygon class="cls-10" points="299.54 313.56 299.54 314.6 289.13 320.71 289.13 319.54 299.54 313.56"/><polygon class="cls-10" points="289.13 319.54 289.13 320.71 278.73 314.6 278.73 313.56 289.13 319.54"/></g><g class="cls-3"><polygon class="cls-10" points="287.31 320.58 287.31 321.75 277.04 327.73 277.04 326.56 287.31 320.58"/><polygon class="cls-10" points="277.04 326.56 277.04 327.73 266.64 321.75 266.64 320.58 277.04 326.56"/></g><g class="cls-3"><polygon class="cls-10" points="275.09 327.73 275.09 328.77 264.82 334.75 264.82 333.71 275.09 327.73"/><polygon class="cls-10" points="264.82 333.71 264.82 334.75 254.42 328.77 254.42 327.6 264.82 333.71"/></g><g class="cls-3"><polygon class="cls-10" points="263 334.75 263 335.92 252.6 341.9 252.6 340.73 263 334.75"/><polygon class="cls-10" points="252.6 340.73 252.6 341.9 242.33 335.92 242.33 334.75 252.6 340.73"/></g><g class="cls-3"><polygon class="cls-10" points="250.78 341.77 250.78 342.94 240.51 348.92 240.51 347.75 250.78 341.77"/><polygon class="cls-10" points="240.51 347.75 240.51 348.92 230.11 342.94 230.11 341.77 240.51 347.75"/></g><g class="cls-3"><polygon class="cls-10" points="238.56 348.92 238.56 350.1 228.29 356.07 228.29 354.9 238.56 348.92"/><polygon class="cls-10" points="228.29 354.9 228.29 356.07 217.89 349.96 217.89 348.92 228.29 354.9"/></g><g class="cls-3"><polygon class="cls-10" points="226.47 355.94 226.47 357.12 216.2 363.1 216.2 361.93 226.47 355.94"/><polygon class="cls-10" points="216.2 361.93 216.2 363.1 205.79 357.12 205.79 355.94 216.2 361.93"/></g><g class="cls-3"><polygon class="cls-10" points="214.25 363.1 214.25 364.14 203.97 370.12 203.97 369.08 214.25 363.1"/><polygon class="cls-10" points="203.97 369.08 203.97 370.12 193.57 364.14 193.57 363.1 203.97 369.08"/></g><g class="cls-3"><polygon class="cls-10" points="202.16 370.12 202.16 371.29 191.75 377.27 191.75 376.1 202.16 370.12"/><polygon class="cls-10" points="191.75 376.1 191.75 377.27 181.35 371.29 181.35 370.12 191.75 376.1"/></g><g class="cls-3"><polygon class="cls-10" points="189.02 377.66 189.02 378.83 162.76 394.04 162.76 393 189.02 377.66"/><polygon class="cls-10" points="162.76 393 162.76 394.04 152.36 388.06 152.36 387.02 162.76 393"/></g><g class="cls-3"><polygon class="cls-10" points="327.62 311.87 327.62 313.04 321.77 316.55 321.77 315.38 327.62 311.87"/><polygon class="cls-10" points="321.77 315.38 321.77 316.55 311.5 310.57 311.5 309.53 321.77 315.38"/><polygon class="cls-10" points="340.88 319.54 340.75 320.71 327.62 313.04 327.62 311.87 340.88 319.54"/><polygon class="cls-10" points="353.88 311.87 353.88 313.04 340.75 320.71 340.88 319.54 353.88 311.87"/><polygon class="cls-10" points="309.29 322.79 309.29 323.96 298.88 317.98 298.88 316.81 309.29 322.79"/><polygon class="cls-10" points="319.56 316.81 319.56 317.98 309.29 323.96 309.29 322.79 319.56 316.81"/><polygon class="cls-10" points="327.88 327.08 327.88 328.12 317.48 322.14 317.48 320.97 327.88 327.08"/><polygon class="cls-10" points="338.28 320.97 338.28 322.14 327.88 328.12 327.88 327.08 338.28 320.97"/></g><g class="cls-3"><polygon class="cls-10" points="367.27 319.67 367.27 320.84 341.14 336.05 341.14 334.88 367.27 319.67"/><polygon class="cls-10" points="341.14 334.88 341.14 336.05 330.74 330.07 330.74 328.9 341.14 334.88"/></g><g class="cls-3"><polygon class="cls-10" points="307.34 323.96 307.34 325.13 296.94 331.11 296.94 329.94 307.34 323.96"/><polygon class="cls-10" points="296.94 329.94 296.94 331.11 286.53 325.13 286.53 323.96 296.94 329.94"/></g><g class="cls-3"><polygon class="cls-10" points="294.99 331.11 294.99 332.28 284.71 338.26 284.71 337.09 294.99 331.11"/><polygon class="cls-10" points="284.71 337.09 284.71 338.26 274.31 332.28 274.31 331.11 284.71 337.09"/></g><g class="cls-3"><polygon class="cls-10" points="282.76 338.26 282.76 339.43 272.36 345.41 272.36 344.24 282.76 338.26"/><polygon class="cls-10" points="272.36 344.24 272.36 345.41 261.96 339.43 261.96 338.26 272.36 344.24"/></g><g class="cls-3"><polygon class="cls-10" points="270.41 345.41 270.41 346.58 260.14 352.56 260.14 351.39 270.41 345.41"/><polygon class="cls-10" points="260.14 351.39 260.14 352.56 249.74 346.58 249.74 345.41 260.14 351.39"/></g><g class="cls-3"><polygon class="cls-10" points="258.19 352.56 258.06 353.74 247.79 359.72 247.79 358.55 258.19 352.56"/><polygon class="cls-10" points="247.79 358.55 247.79 359.72 237.39 353.74 237.39 352.56 247.79 358.55"/></g><g class="cls-3"><polygon class="cls-10" points="245.84 359.72 245.84 360.89 235.57 366.87 235.57 365.7 245.84 359.72"/><polygon class="cls-10" points="235.57 365.7 235.57 366.87 225.17 360.89 225.17 359.72 235.57 365.7"/></g><g class="cls-3"><polygon class="cls-10" points="233.49 366.87 233.49 368.04 223.22 374.02 223.22 372.85 233.49 366.87"/><polygon class="cls-10" points="223.22 372.85 223.22 374.02 212.82 368.04 212.82 366.87 223.22 372.85"/></g><g class="cls-3"><polygon class="cls-10" points="221.27 374.02 221.27 375.19 211 381.17 211 380 221.27 374.02"/><polygon class="cls-10" points="211 380 211 381.17 200.59 375.19 200.59 374.02 211 380"/></g><g class="cls-3"><polygon class="cls-10" points="208.92 381.17 208.92 382.34 198.64 388.32 198.64 387.15 208.92 381.17"/><polygon class="cls-10" points="198.64 387.15 198.64 388.32 188.24 382.34 188.24 381.17 198.64 387.15"/></g><g class="cls-3"><polygon class="cls-10" points="196.17 388.58 196.17 389.75 175.76 401.58 175.76 400.41 196.17 388.58"/><polygon class="cls-10" points="175.76 400.41 175.76 401.58 165.36 395.6 165.36 394.43 175.76 400.41"/></g><g class="cls-3"><polygon class="cls-10" points="325.93 328.12 325.93 329.29 315.66 335.27 315.66 334.23 325.93 328.12"/><polygon class="cls-10" points="315.66 334.23 315.66 335.27 305.26 329.29 305.26 328.12 315.66 334.23"/></g><g class="cls-3"><polygon class="cls-10" points="313.58 335.27 313.58 336.44 303.31 342.42 303.31 341.25 313.58 335.27"/><polygon class="cls-10" points="303.31 341.25 303.31 342.42 292.9 336.44 292.9 335.27 303.31 341.25"/></g><g class="cls-3"><polygon class="cls-10" points="301.36 342.42 301.36 343.59 291.08 349.57 291.08 348.4 301.36 342.42"/><polygon class="cls-10" points="291.08 348.4 291.08 349.57 280.68 343.59 280.68 342.42 291.08 348.4"/></g><g class="cls-3"><polygon class="cls-10" points="289 349.57 289 350.75 278.73 356.73 278.73 355.56 289 349.57"/><polygon class="cls-10" points="278.73 355.56 278.73 356.73 268.33 350.75 268.33 349.57 278.73 355.56"/></g><g class="cls-3"><polygon class="cls-10" points="276.78 356.73 276.78 357.89 266.51 363.88 266.51 362.71 276.78 356.73"/><polygon class="cls-10" points="266.51 362.71 266.51 363.88 256.11 357.89 256.11 356.73 266.51 362.71"/></g><g class="cls-3"><polygon class="cls-10" points="264.43 363.88 264.43 365.05 254.16 371.03 254.16 369.86 264.43 363.88"/><polygon class="cls-10" points="254.16 369.86 254.16 371.03 243.76 365.05 243.76 363.88 254.16 369.86"/></g><g class="cls-3"><polygon class="cls-10" points="252.21 371.03 252.21 372.2 241.94 378.18 241.94 377.01 252.21 371.03"/><polygon class="cls-10" points="241.94 377.01 241.94 378.18 231.54 372.2 231.54 371.03 241.94 377.01"/></g><g class="cls-3"><polygon class="cls-10" points="239.86 378.18 239.86 379.35 229.59 385.33 229.59 384.16 239.86 378.18"/><polygon class="cls-10" points="229.59 384.16 229.59 385.33 219.19 379.35 219.19 378.18 229.59 384.16"/></g><g class="cls-3"><polygon class="cls-10" points="227.64 385.33 227.64 386.5 217.37 392.48 217.37 391.31 227.64 385.33"/><polygon class="cls-10" points="217.37 391.31 217.37 392.48 206.97 386.5 206.97 385.33 217.37 391.31"/></g><g class="cls-3"><polygon class="cls-10" points="215.03 392.61 215.03 393.78 188.76 409.12 188.76 407.95 215.03 392.61"/><polygon class="cls-10" points="188.76 407.95 188.76 409.12 178.36 403.01 178.36 401.97 188.76 407.95"/></g><g class="cls-3"><polygon class="cls-10" points="338.8 336.18 338.8 337.35 328.53 343.33 328.53 342.16 338.8 336.18"/><polygon class="cls-10" points="328.53 342.16 328.53 343.33 318.13 337.35 318.13 336.18 328.53 342.16"/></g><g class="cls-3"><polygon class="cls-10" points="326.58 343.33 326.58 344.5 316.31 350.49 316.31 349.31 326.58 343.33"/><polygon class="cls-10" points="316.31 349.31 316.31 350.49 305.91 344.5 305.91 343.33 316.31 349.31"/></g><g class="cls-3"><polygon class="cls-10" points="314.36 350.36 314.36 351.52 304.09 357.5 304.09 356.33 314.36 350.36"/><polygon class="cls-10" points="304.09 356.33 304.09 357.5 293.69 351.52 293.69 350.36 304.09 356.33"/></g><g class="cls-3"><polygon class="cls-10" points="302.27 357.5 302.27 358.68 291.86 364.66 291.86 363.49 302.27 357.5"/><polygon class="cls-10" points="291.86 363.49 291.86 364.66 281.59 358.68 281.59 357.5 291.86 363.49"/></g><g class="cls-3"><polygon class="cls-10" points="290.04 364.53 290.04 365.7 243.24 392.87 243.24 391.7 290.04 364.53"/><polygon class="cls-10" points="243.24 391.7 243.24 392.87 232.84 386.89 232.97 385.72 243.24 391.7"/></g><g class="cls-3"><polygon class="cls-10" points="240.9 393.13 240.9 394.3 230.5 400.28 230.5 399.11 240.9 393.13"/><polygon class="cls-10" points="230.5 399.11 230.5 400.28 220.1 394.3 220.1 393.13 230.5 399.11"/></g><g class="cls-3"><polygon class="cls-10" points="228.42 400.41 228.42 401.58 202.16 416.79 202.16 415.62 228.42 400.41"/><polygon class="cls-10" points="202.16 415.62 202.16 416.79 191.75 410.81 191.75 409.64 202.16 415.62"/></g><polygon class="cls-11" points="302.66 281.71 292.25 287.69 281.98 281.71 292.25 275.73 302.66 281.71"/><polygon class="cls-11" points="289.65 289.25 279.38 295.23 268.98 289.25 279.25 283.14 289.65 289.25"/><polygon class="cls-11" points="276.78 296.66 266.38 302.64 255.98 296.66 266.38 290.68 276.78 296.66"/><polygon class="cls-11" points="263.78 304.2 253.51 310.18 243.11 304.2 253.38 298.22 263.78 304.2"/><polygon class="cls-11" points="250.78 311.74 240.51 317.72 230.11 311.74 240.51 305.76 250.78 311.74"/><polygon class="cls-11" points="237.91 319.28 227.51 325.26 217.24 319.28 227.51 313.3 237.91 319.28"/><polygon class="cls-11" points="224.91 326.82 214.64 332.8 204.24 326.82 214.51 320.84 224.91 326.82"/><polygon class="cls-11" points="212.04 334.36 201.63 340.34 191.23 334.36 201.63 328.38 212.04 334.36"/><polygon class="cls-11" points="199.03 341.9 188.76 347.88 178.36 341.9 188.63 335.92 199.03 341.9"/><polygon class="cls-11" points="186.03 349.44 175.76 355.43 165.36 349.44 175.76 343.46 186.03 349.44"/><polygon class="cls-11" points="173.16 356.86 162.76 362.84 152.49 356.86 162.76 350.88 173.16 356.86"/><polygon class="cls-11" points="160.16 364.4 149.89 370.38 139.49 364.4 149.76 358.42 160.16 364.4"/><polygon class="cls-11" points="147.29 371.94 136.89 377.92 126.49 371.94 136.89 365.96 147.29 371.94"/><polygon class="cls-11" points="315.01 289.51 294.07 301.73 283.67 295.75 304.61 283.53 315.01 289.51"/><polygon class="cls-11" points="291.73 303.03 281.33 309.01 270.93 303.03 281.33 297.05 291.73 303.03"/><polygon class="cls-11" points="279.38 310.18 268.98 316.16 258.58 310.18 268.98 304.2 279.38 310.18"/><polygon class="cls-11" points="267.03 317.33 256.63 323.44 246.23 317.33 256.63 311.35 267.03 317.33"/><polygon class="cls-11" points="254.55 324.61 244.28 330.59 233.88 324.61 244.28 318.63 254.55 324.61"/><polygon class="cls-11" points="242.2 331.76 231.93 337.74 221.53 331.76 231.93 325.78 242.2 331.76"/><polygon class="cls-11" points="229.85 338.91 219.58 344.89 209.18 338.91 219.58 332.93 229.85 338.91"/><polygon class="cls-11" points="217.5 346.06 207.22 352.05 196.82 346.06 207.22 340.08 217.5 346.06"/><polygon class="cls-11" points="205.15 353.35 194.87 359.33 184.47 353.35 194.87 347.23 205.15 353.35"/><polygon class="cls-11" points="192.79 360.5 182.52 366.48 172.12 360.5 182.52 354.51 192.79 360.5"/><polygon class="cls-11" points="180.44 367.65 170.17 373.63 159.77 367.65 170.17 361.67 180.44 367.65"/><polygon class="cls-11" points="168.09 374.93 149.89 385.46 139.49 379.48 157.69 368.95 168.09 374.93"/><polygon class="cls-11" points="328.01 296.92 301.88 312.13 291.47 306.15 317.61 290.94 328.01 296.92"/><polygon class="cls-11" points="299.54 313.56 289.13 319.54 278.73 313.56 289.13 307.58 299.54 313.56"/><polygon class="cls-11" points="287.31 320.58 277.04 326.56 266.64 320.58 276.91 314.6 287.31 320.58"/><polygon class="cls-11" points="275.09 327.73 264.82 333.71 254.42 327.6 264.69 321.62 275.09 327.73"/><polygon class="cls-11" points="263 334.75 252.6 340.73 242.33 334.75 252.6 328.77 263 334.75"/><polygon class="cls-11" points="250.78 341.77 240.51 347.75 230.11 341.77 240.38 335.79 250.78 341.77"/><polygon class="cls-11" points="238.56 348.92 228.29 354.9 217.89 348.92 228.29 342.94 238.56 348.92"/><polygon class="cls-11" points="226.47 355.94 216.2 361.93 205.79 355.94 216.07 349.96 226.47 355.94"/><polygon class="cls-11" points="214.25 363.1 203.97 369.08 193.57 363.1 203.84 356.99 214.25 363.1"/><polygon class="cls-11" points="202.16 370.12 191.75 376.1 181.35 370.12 191.75 364.14 202.16 370.12"/><polygon class="cls-11" points="189.02 377.66 162.76 393 152.36 387.02 178.75 371.68 189.02 377.66"/><polygon class="cls-11" points="353.88 311.87 340.88 319.54 327.62 311.87 321.77 315.38 311.5 309.53 330.61 298.48 353.88 311.87"/><polygon class="cls-11" points="319.56 316.81 309.29 322.79 298.88 316.81 309.16 310.83 319.56 316.81"/><polygon class="cls-11" points="338.28 320.97 327.88 327.08 317.48 320.97 327.88 314.99 338.28 320.97"/><polygon class="cls-11" points="367.27 319.67 341.14 334.88 330.74 328.9 356.87 313.69 367.27 319.67"/><polygon class="cls-11" points="307.34 323.96 296.94 329.94 286.53 323.96 296.94 317.98 307.34 323.96"/><polygon class="cls-11" points="294.99 331.11 284.71 337.09 274.31 331.11 284.58 325.13 294.99 331.11"/><polygon class="cls-11" points="282.76 338.26 272.36 344.24 261.96 338.26 272.36 332.28 282.76 338.26"/><polygon class="cls-11" points="270.41 345.41 260.14 351.39 249.74 345.41 260.01 339.43 270.41 345.41"/><polygon class="cls-11" points="258.19 352.56 247.79 358.55 237.39 352.56 247.79 346.58 258.19 352.56"/><polygon class="cls-11" points="245.84 359.72 235.57 365.7 225.17 359.72 235.44 353.74 245.84 359.72"/><polygon class="cls-11" points="233.49 366.87 223.22 372.85 212.82 366.87 223.22 360.89 233.49 366.87"/><polygon class="cls-11" points="221.27 374.02 211 380 200.59 374.02 210.87 368.04 221.27 374.02"/><polygon class="cls-11" points="208.92 381.17 198.64 387.15 188.24 381.17 198.64 375.19 208.92 381.17"/><polygon class="cls-11" points="196.17 388.58 175.76 400.41 165.36 394.43 185.77 382.6 196.17 388.58"/><polygon class="cls-11" points="325.93 328.12 315.66 334.23 305.26 328.12 315.53 322.14 325.93 328.12"/><polygon class="cls-11" points="313.58 335.27 303.31 341.25 292.9 335.27 303.31 329.29 313.58 335.27"/><polygon class="cls-11" points="301.36 342.42 291.08 348.4 280.68 342.42 290.95 336.44 301.36 342.42"/><polygon class="cls-11" points="289 349.57 278.73 355.56 268.33 349.57 278.73 343.59 289 349.57"/><polygon class="cls-11" points="276.78 356.73 266.51 362.71 256.11 356.73 266.38 350.75 276.78 356.73"/><polygon class="cls-11" points="264.43 363.88 254.16 369.86 243.76 363.88 254.16 357.89 264.43 363.88"/><polygon class="cls-11" points="252.21 371.03 241.94 377.01 231.54 371.03 241.81 365.05 252.21 371.03"/><polygon class="cls-11" points="239.86 378.18 229.59 384.16 219.19 378.18 229.46 372.2 239.86 378.18"/><polygon class="cls-11" points="227.64 385.33 217.37 391.31 206.97 385.33 217.24 379.35 227.64 385.33"/><polygon class="cls-11" points="215.03 392.61 188.76 407.95 178.36 401.97 204.63 386.63 215.03 392.61"/><polygon class="cls-11" points="338.8 336.18 328.53 342.16 318.13 336.18 328.4 330.2 338.8 336.18"/><polygon class="cls-11" points="326.58 343.33 316.31 349.31 305.91 343.33 316.18 337.35 326.58 343.33"/><polygon class="cls-11" points="314.36 350.36 304.09 356.33 293.69 350.36 304.09 344.37 314.36 350.36"/><polygon class="cls-11" points="302.27 357.5 291.86 363.49 281.59 357.5 291.86 351.52 302.27 357.5"/><polygon class="cls-11" points="290.04 364.53 243.24 391.7 232.97 385.72 279.64 358.55 290.04 364.53"/><polygon class="cls-11" points="240.9 393.13 230.5 399.11 220.1 393.13 230.5 387.15 240.9 393.13"/><polygon class="cls-11" points="228.42 400.41 202.16 415.62 191.75 409.64 218.02 394.43 228.42 400.41"/><path class="cls-4" d="M339.19,377a3.07,3.07,0,0,1-1.17,1l-42.9,24.7a8.82,8.82,0,0,1-7.67,0l-20-11.57a3.07,3.07,0,0,1-1.17-1c-0.78-1.17-.39-2.47,1.17-3.38l42.9-24.7a8.82,8.82,0,0,1,7.67,0l20,11.57C339.45,374.54,339.84,375.84,339.19,377Z"/><path class="cls-6" d="M339.19,377a3.07,3.07,0,0,1-1.17,1l-42.9,24.7a8.82,8.82,0,0,1-7.67,0l-20-11.57a1,1,0,1,1,0-2.08l42.9-24.7a8.82,8.82,0,0,1,7.67,0L338,376A3.07,3.07,0,0,1,339.19,377Z"/><g class="cls-3"><path id="SVGID-3" data-name="SVGID" class="cls-4" d="M252.73,113.86l5.2,0.78a2.68,2.68,0,0,0-2,.39l-5.2-.78A2.91,2.91,0,0,1,252.73,113.86Z"/><g class="cls-12"><g class="cls-3"><path class="cls-4" d="M256.11,115.16l-5.2-.78a2.68,2.68,0,0,1,2-.39l5.2,0.78a2.68,2.68,0,0,0-2,.39h0Z"/></g></g><polygon class="cls-6" points="72.92 220.86 67.59 220.08 250.91 114.25 256.11 115.16 72.92 220.86"/><polygon class="cls-6" points="110.75 376.36 105.42 375.58 65.38 226.32 70.58 227.23 110.75 376.36"/><path id="SVGID-4" data-name="SVGID" class="cls-4" d="M70.58,227.23l-5.2-.78c-0.65-2.34.39-5.2,2.21-6.24l5.2,0.78C71,221.9,70.06,224.76,70.58,227.23Z"/><g class="cls-13"><path class="cls-6" d="M70.58,227.23l-5.2-.78c-0.65-2.34.39-5.2,2.21-6.24l5.2,0.78c-1.82.91-2.73,3.77-2.21,6.24h0Z"/></g><path class="cls-4" d="M256.11,115.16c1.82-1,3.9,0,4.55,2.34l40,149.26-190,109.73-40-149.26c-0.65-2.34.39-5.2,2.21-6.24Z"/></g><path class="cls-4" d="M257,119.19L74.87,224.24a1.84,1.84,0,0,0-.39,1.82l0.91,3.38L258.32,123.87Z"/><polygon class="cls-4" points="110.63 361.15 113.22 370.38 296.15 264.81 293.56 255.44 110.63 361.15"/><polygon class="cls-14" points="293.56 255.44 123.76 353.61 110.63 361.15 95.54 304.85 88.52 278.33 80.72 249.72 75.39 229.57 113.61 207.47 167.96 176.14 218.15 147.14 258.32 124 269.5 165.87 293.56 255.44"/><path class="cls-11" d="M161.72,171.72c1.17-.65,2.47,0,2.86,1.56a3.84,3.84,0,0,1-1.43,4c-1.17.65-2.47,0-2.86-1.56A3.76,3.76,0,0,1,161.72,171.72Z"/><polygon class="cls-4" points="217.5 302.25 206.44 308.75 208.53 316.68 219.71 310.31 217.5 302.25"/><polygon class="cls-15" points="167.96 176.14 88.52 278.33 80.72 249.72 113.61 207.47 167.96 176.14"/><polygon class="cls-15" points="269.5 165.87 123.76 353.61 110.63 361.15 95.54 304.85 218.15 147.14 258.32 124 269.5 165.87"/><polygon class="cls-9" points="302.14 193.04 117.52 299.65 117.52 150.52 302.14 43.91 302.14 193.04"/><polygon class="cls-16" points="321.77 201.36 137.15 307.84 137.15 158.71 321.77 52.1 321.77 201.36"/><polygon class="cls-17" points="338.02 214.88 153.4 321.49 153.4 172.37 338.02 65.75 338.02 214.88"/><polygon class="cls-18" points="338.02 94.88 153.4 201.49 153.4 172.37 338.02 65.75 338.02 94.88"/><polygon class="cls-19" points="332.04 208.12 232.97 265.19 232.97 167.16 332.04 109.96 332.04 208.12"/><polygon class="cls-20" points="332.04 147.01 332.04 109.96 232.97 167.16 232.97 204.22 332.04 147.01"/><polygon class="cls-18" points="305.13 170.54 250.65 202.01 250.65 211.37 305.13 180.04 305.13 170.54"/><polygon class="cls-18" points="312.28 166.51 312.28 175.88 327.88 166.78 327.88 157.41 312.28 166.51"/><polygon class="cls-18" points="305.13 183.68 250.65 215.14 250.65 224.5 305.13 193.04 305.13 183.68"/><polygon class="cls-18" points="312.28 179.52 312.28 188.88 327.88 179.91 327.88 170.41 312.28 179.52"/><polygon class="cls-18" points="305.13 196.68 250.65 228.14 250.65 237.5 305.13 206.04 305.13 196.68"/><polygon class="cls-18" points="312.28 192.52 312.28 202.01 327.88 192.91 327.88 183.55 312.28 192.52"/><polygon class="cls-18" points="305.13 209.68 250.65 241.14 250.65 250.5 305.13 219.17 305.13 209.68"/><polygon class="cls-18" points="312.28 205.65 312.28 215.01 327.88 205.91 327.88 196.55 312.28 205.65"/><path class="cls-18" d="M245.71,209.55c0-2.6-1.82-3.64-4-2.34a9,9,0,0,0-4,7c0,2.6,1.82,3.64,4,2.34A9,9,0,0,0,245.71,209.55Z"/><path class="cls-18" d="M245.71,248.68c0-2.6-1.82-3.64-4-2.34a9,9,0,0,0-4,7c0,2.6,1.82,3.64,4,2.34A9,9,0,0,0,245.71,248.68Z"/><path class="cls-18" d="M245.71,235.68c0-2.6-1.82-3.64-4-2.34a9,9,0,0,0-4,7c0,2.6,1.82,3.64,4,2.34A9,9,0,0,0,245.71,235.68Z"/><path class="cls-18" d="M245.71,222.68c0-2.6-1.82-3.64-4-2.34a9,9,0,0,0-4,7c0,2.6,1.82,3.64,4,2.34A9.21,9.21,0,0,0,245.71,222.68Z"/><polygon class="cls-19" points="226.73 214.88 158.34 254.27 158.34 208.9 226.73 169.38 226.73 214.88"/><g class="cls-21"><path class="cls-22" d="M172.38,236.07c0-3.25-2.34-4.55-5.07-3a11,11,0,0,0-5.07,8.84c0,3.25,2.34,4.55,5.07,3A11.6,11.6,0,0,0,172.38,236.07Z"/><path class="cls-22" d="M189.15,226.32c0-3.25-2.34-4.55-5.07-3a11,11,0,0,0-5.07,8.84c0,3.25,2.34,4.55,5.07,3A11.24,11.24,0,0,0,189.15,226.32Z"/><path class="cls-22" d="M206.06,216.57c0-3.25-2.34-4.55-5.07-3a11,11,0,0,0-5.07,8.84c0,3.25,2.34,4.55,5.07,3A11.39,11.39,0,0,0,206.06,216.57Z"/><path class="cls-22" d="M223,206.95c0-3.25-2.34-4.55-5.07-3a11,11,0,0,0-5.07,8.84c0,3.25,2.34,4.55,5.07,3A11.6,11.6,0,0,0,223,206.95Z"/></g><polygon class="cls-19" points="226.73 267.41 158.34 306.93 158.34 261.56 226.73 222.03 226.73 267.41"/><g class="cls-21"><path class="cls-22" d="M172.38,288.73c0-3.25-2.34-4.55-5.07-3a11,11,0,0,0-5.07,8.84c0,3.25,2.34,4.55,5.07,3A11.6,11.6,0,0,0,172.38,288.73Z"/><path class="cls-22" d="M189.15,279c0-3.25-2.34-4.55-5.07-3a11,11,0,0,0-5.07,8.84c0,3.25,2.34,4.55,5.07,3A11.24,11.24,0,0,0,189.15,279Z"/><path class="cls-22" d="M206.06,269.23c0-3.25-2.34-4.55-5.07-3a11,11,0,0,0-5.07,8.84c0,3.25,2.34,4.55,5.07,3A11.39,11.39,0,0,0,206.06,269.23Z"/><path class="cls-22" d="M223,259.47c0-3.25-2.34-4.55-5.07-3a11,11,0,0,0-5.07,8.84c0,3.25,2.34,4.55,5.07,3A11.39,11.39,0,0,0,223,259.47Z"/></g><path class="cls-19" d="M264.17,165.91a6.06,6.06,0,0,1,3.12-5.33V159l1.69-.91v1.56a6.91,6.91,0,0,1,2.6-.91v2.73c-1,.39-2.21,1.17-3.25,1.69-0.78.52-1.17,0.65-1.17,1.43v0.26c0,0.52.13,0.78,0.91,0.26l1-.52c2.34-1.43,2.86.65,2.86,2.08v0.65a6.45,6.45,0,0,1-3,5.85v1.43l-1.69.91v-1.43a7.22,7.22,0,0,1-2.73,1v-2.73c0.65-.26,2.08-1,3.64-1.82a1.48,1.48,0,0,0,.91-1.3V169c0-.52-0.13-0.65-0.78-0.26l-0.91.52c-3,1.69-3.12-1.17-3.12-2.08v-1.3h-0.13Z"/><path class="cls-19" d="M273.27,166.3a3.31,3.31,0,0,1,1.17-2.73c-1.17,0-1.17-.91-1.17-2.08v-1.17c0-2.47,1.43-3.9,3.12-4.94l2.47-1.43c1.82-1,2.86-.78,2.86,1.56v0.78a3.37,3.37,0,0,1-1.17,2.73c1-.39,1.17,1.17,1.17,1.82v1.43c0,3-1.3,4.16-2.86,4.94l-2.47,1.43c-3,1.69-3.12-.26-3.12-1.43V166.3Zm3.77-6.11,0.78-.52a1.17,1.17,0,0,0,.78-1.17V158c0-.91-0.39-0.65-0.78-0.52L277,158a1.2,1.2,0,0,0-.78,1.3v0.52C276.26,160.45,276.52,160.45,277,160.19Zm0,5.2,0.78-.52a1.33,1.33,0,0,0,.78-1.3v-0.78c0-.52-0.13-0.78-0.65-0.39l-0.78.52a1.33,1.33,0,0,0-.78,1.3V165C276.26,165.52,276.39,165.65,277,165.39Z"/><path class="cls-19" d="M285.62,150.05l3.25-1.82-2.47,9,1.56-.91v-2.47l0.39-1.69,2.6-1.56v3.77l0.91-.52v2.73l-0.91,1v2.47l-3,1.69v-2.47l-5.07,3-0.52-1.3Z"/><path class="cls-19" d="M292.51,146.54a30.18,30.18,0,0,1,4.81-3.25c2.47-1.43,3.51-.26,3.51,2.21s-2.34,6.24-3.25,7.8l3.25-2v3.12l-8.19,4.68v-2.86c1.3-1.69,5.2-7.54,5.2-9,0-1-.52-0.91-1.82-0.26l-3.51,2.08v-2.6h0Z"/><path class="cls-17" d="M331.91,85.91c0-3.25-2.34-4.55-5.07-3a11,11,0,0,0-5.07,8.84c0,3.25,2.34,4.55,5.07,3A11.6,11.6,0,0,0,331.91,85.91Z"/><path class="cls-17" d="M318,93.84c0-3.25-2.34-4.55-5.07-3a11,11,0,0,0-5.07,8.84c0,3.25,2.34,4.55,5.07,3A11,11,0,0,0,318,93.84Z"/><path class="cls-17" d="M304.22,101.77c0-3.25-2.34-4.55-5.07-3a11,11,0,0,0-5.07,8.84c0,3.25,2.34,4.55,5.07,3A11.24,11.24,0,0,0,304.22,101.77Z"/><ellipse class="cls-23" cx="436.83" cy="295.62" rx="55.91" ry="32.24"/><path class="cls-24" d="M485.85,291.85v0.39h0a6.33,6.33,0,0,1-.13,1.56h0a19.32,19.32,0,0,1-2.08,6.76c-2.47,4.81-6.89,9.36-13.52,13.13-20.67,12-54.22,12-74.89,0-6.24-3.64-10.53-7.8-13-12.35h0a19.64,19.64,0,0,1-2.21-6.76,8.58,8.58,0,0,1-.13-1.82V278.33c0,7.8,5.2,15.6,15.34,21.58,20.54,12,54.09,12,74.89,0,10.4-6,15.6-13.91,15.6-21.84v11.05Z"/><g class="cls-3"><path class="cls-22" d="M395.62,256.35c-20.8,12-20.8,31.33-.26,43.42s54.09,12,74.89,0,20.8-31.33.26-43.42S416.29,244.39,395.62,256.35Z"/><path class="cls-25" d="M477.13,280.41c-0.91,5.72-5.2,11.44-12.87,15.86-17.42,10-45.5,10-62.93,0-7.54-4.42-11.83-10-12.74-15.73-1.17-7.41,3.12-15.08,12.87-20.67,17.42-10,45.5-10,62.93,0C474.14,265.59,478.3,273.13,477.13,280.41Z"/><path class="cls-24" d="M477.13,280.41c-0.91,5.72-5.2,11.44-12.87,15.86-17.42,10-45.5,10-62.93,0-7.54-4.42-11.83-10-12.74-15.73,0.91-5.72,5.2-11.44,12.87-15.86,17.42-10,45.5-10,62.93,0C471.93,269.1,476.22,274.69,477.13,280.41Z"/></g><path class="cls-22" d="M485.85,289.12c-1.69,6.5-6.89,12.48-15.08,17.16-21.06,12.09-55.13,12.09-75.93,0-7.93-4.68-13.13-10.53-14.82-16.77v3.12c2.34,5.46,7.28,10.53,14.3,14.56,10.53,6.11,24.44,9.23,38.48,9.23s28-3.12,38.61-9.23c7.28-4.16,12.22-9.36,14.56-15h0v-0.39Zm-91.53,13.65c10.53,6.11,24.44,9.23,38.48,9.23s28-3.12,38.61-9.23c7.15-4.16,12.22-9.36,14.56-15V284.7c-1.69,6.5-6.89,12.35-15.08,17.16C449.83,314,415.77,314,395,301.86c-7.93-4.68-13.13-10.53-14.82-16.77v3.12C382.35,293.67,387.29,298.61,394.32,302.77Zm76.45,7.93c-21.06,12.09-55.13,12.09-75.93,0-7.67-4.55-12.74-10.14-14.56-16.25a18.79,18.79,0,0,0,2.21,6.76h0a38.8,38.8,0,0,0,11.83,10.27c10.53,6.11,24.44,9.23,38.48,9.23s28-3.12,38.61-9.23a37.24,37.24,0,0,0,12.48-10.92A18.53,18.53,0,0,0,486,293.8C484,300.17,478.82,306,470.76,310.7Z"/><path class="cls-26" d="M112.84,402.1c21.32,12.35,21.32,32.37,0,44.72s-56,12.35-77.36,0-21.32-32.37,0-44.72S91.51,389.75,112.84,402.1Z"/><path class="cls-24" d="M118.69,418.74v0.39h0a6.33,6.33,0,0,1-.13,1.56h0a21.4,21.4,0,0,1-2,6.63c-2.34,4.68-6.76,9.1-13.26,12.87-20.28,11.7-53.18,11.7-73.33,0-6.11-3.51-10.27-7.67-12.74-12.09h0a19,19,0,0,1-2.21-6.63,8.58,8.58,0,0,1-.13-1.82V405.74C14.93,413.41,20,421,30,426.8c20.15,11.7,53,11.7,73.33,0,10.14-5.85,15.34-13.65,15.34-21.32v13.26Z"/><g class="cls-3"><path class="cls-22" d="M30.28,384C10,395.73,9.86,414.84,30,426.54s53,11.7,73.33,0,20.41-30.81.26-42.51S50.56,372.2,30.28,384Z"/><path class="cls-25" d="M110.23,407.56c-0.91,5.72-5.2,11.18-12.61,15.47-17,9.88-44.59,9.88-61.63,0-7.41-4.29-11.57-9.75-12.48-15.34-1.17-7.28,3-14.69,12.61-20.28,17-9.88,44.59-9.88,61.63,0C107.24,392.87,111.41,400.28,110.23,407.56Z"/><path class="cls-24" d="M110.23,407.56c-0.91,5.72-5.2,11.18-12.61,15.47-17,9.88-44.59,9.88-61.63,0-7.41-4.29-11.57-9.75-12.48-15.34,0.91-5.72,5.2-11.18,12.61-15.47,17-9.88,44.59-9.88,61.63,0C105.16,396.51,109.32,402,110.23,407.56Z"/></g><path class="cls-22" d="M118.69,416c-1.69,6.37-6.76,12.22-14.82,16.9-20.54,11.83-54,11.83-74.5,0-7.8-4.55-12.87-10.27-14.56-16.51v3c2.34,5.33,7.15,10.27,13.91,14.3,10.4,6,24.05,9.1,37.7,9.1s27.3-3,37.83-9.1c7-4,12-9.1,14.3-14.56h0v-0.39ZM29,429.4c10.4,6,24.05,9.1,37.7,9.1s27.3-3,37.83-9.1c7-4,12-9.1,14.3-14.56v-3c-1.69,6.37-6.76,12.09-14.82,16.77-20.54,11.83-54,11.83-74.5,0-7.8-4.55-12.87-10.27-14.56-16.38v3C17.28,420.43,22.09,425.37,29,429.4Zm74.89,7.8c-20.54,11.83-54,11.83-74.5,0-7.54-4.42-12.48-9.88-14.3-15.86A18.17,18.17,0,0,0,17.28,428h0a34.17,34.17,0,0,0,11.57,10c10.4,6,24.05,9.1,37.7,9.1s27.3-3,37.83-9.1a37.18,37.18,0,0,0,12.22-10.79,18.39,18.39,0,0,0,2-6.63C116.87,426.93,111.8,432.65,103.86,437.2Z"/><path class="cls-24" d="M111.15,402.36v0.39h0a6.33,6.33,0,0,1-.13,1.56h0a21.4,21.4,0,0,1-2,6.63c-2.34,4.68-6.76,9.1-13.26,12.87-20.28,11.7-53.18,11.7-73.33,0-6.11-3.51-10.27-7.67-12.74-12.09h0a19,19,0,0,1-2.21-6.63,8.58,8.58,0,0,1-.13-1.82V389.36c0,7.67,5.07,15.21,15.08,21.06,20.15,11.7,53,11.7,73.33,0,10.14-5.85,15.34-13.65,15.34-21.32v13.26Z"/><g class="cls-3"><path class="cls-22" d="M22.61,367.65c-20.28,11.7-20.41,30.81-.26,42.51s53,11.7,73.33,0,20.41-30.81.26-42.51S43,355.95,22.61,367.65Z"/><path class="cls-25" d="M102.56,391.18c-0.91,5.72-5.2,11.18-12.61,15.47-17,9.88-44.59,9.88-61.63,0-7.41-4.29-11.57-9.75-12.48-15.34-1.17-7.28,3-14.69,12.61-20.28,17-9.88,44.59-9.88,61.63,0C99.57,376.62,103.73,384,102.56,391.18Z"/><path class="cls-24" d="M102.56,391.18c-0.91,5.72-5.2,11.18-12.61,15.47-17,9.88-44.59,9.88-61.63,0-7.41-4.29-11.57-9.75-12.48-15.34,0.91-5.72,5.2-11.18,12.61-15.47,17-9.88,44.59-9.88,61.63,0C97.49,380.13,101.65,385.59,102.56,391.18Z"/></g><path class="cls-22" d="M111.15,399.63c-1.69,6.37-6.76,12.22-14.82,16.9-20.54,11.83-54,11.83-74.5,0C14,412,9,406.26,7.26,400v3c2.34,5.33,7.15,10.27,13.91,14.3,10.4,6,24.05,9.1,37.7,9.1s27.3-3,37.83-9.1c7-4,12-9.1,14.3-14.56h0v-0.39ZM21.31,413c10.4,6,24.05,9.1,37.7,9.1s27.3-3,37.83-9.1c7-4,12-9.1,14.3-14.56v-3c-1.69,6.37-6.76,12.09-14.82,16.77-20.54,11.83-54,11.83-74.5,0C14,407.69,9,402,7.26,395.86v3C9.73,404.18,14.41,409,21.31,413Zm75,7.8c-20.54,11.83-54,11.83-74.5,0C14.28,416.4,9.34,410.94,7.52,405a18.17,18.17,0,0,0,2.21,6.63h0a34.17,34.17,0,0,0,11.57,10c10.4,6,24.05,9.1,37.7,9.1s27.3-3,37.83-9.1a37.18,37.18,0,0,0,12.22-10.79,18.39,18.39,0,0,0,2-6.63C109.19,410.55,104.12,416.27,96.32,420.82Z"/><path class="cls-24" d="M128.7,384.68v0.39h0a6.33,6.33,0,0,1-.13,1.56h0a21.4,21.4,0,0,1-2,6.63c-2.34,4.68-6.76,9.1-13.26,12.87-20.28,11.7-53.18,11.7-73.33,0-6.11-3.51-10.27-7.67-12.74-12.09h0a19,19,0,0,1-2.21-6.63,8.58,8.58,0,0,1-.13-1.82V371.68c0,7.67,5.07,15.21,15.08,21.06,20.15,11.7,53,11.7,73.33,0,10.14-5.85,15.34-13.65,15.34-21.32v13.26Z"/><g class="cls-3"><path class="cls-22" d="M40.29,350C20,361.67,19.88,380.78,40,392.48s53,11.7,73.33,0,20.41-30.81.26-42.51S60.57,338.26,40.29,350Z"/><path class="cls-25" d="M120.25,373.63c-0.91,5.72-5.2,11.18-12.61,15.47C90.6,399,63,399,46,389.1c-7.41-4.29-11.57-9.75-12.48-15.34-1.17-7.28,3-14.69,12.61-20.28,17-9.88,44.59-9.88,61.63,0C117.26,358.94,121.42,366.35,120.25,373.63Z"/><path class="cls-24" d="M120.25,373.63c-0.91,5.72-5.2,11.18-12.61,15.47C90.6,399,63,399,46,389.1c-7.41-4.29-11.57-9.75-12.48-15.34,0.91-5.72,5.2-11.18,12.61-15.47,17-9.88,44.59-9.88,61.63,0C115.18,362.45,119.34,367.91,120.25,373.63Z"/></g><path class="cls-22" d="M128.7,381.95c-1.69,6.37-6.76,12.22-14.82,16.9-20.54,11.83-54,11.83-74.5,0-7.8-4.55-12.87-10.27-14.56-16.51v3c2.34,5.33,7.15,10.27,13.91,14.3,10.4,6,24.05,9.1,37.7,9.1s27.3-3,37.83-9.1c7-4,12-9.1,14.3-14.56h0v-0.39ZM39,395.47c10.4,6,24.05,9.1,37.7,9.1s27.3-3,37.83-9.1c7-4,12-9.1,14.3-14.56v-3c-1.69,6.37-6.76,12.09-14.82,16.77-20.54,11.83-54,11.83-74.5,0-7.8-4.55-12.87-10.27-14.56-16.38v3C27.29,386.5,32.1,391.44,39,395.47Zm74.89,7.67c-20.54,11.83-54,11.83-74.5,0-7.54-4.42-12.48-9.88-14.3-15.86a18.17,18.17,0,0,0,2.21,6.63h0a34.17,34.17,0,0,0,11.57,10c10.4,6,24.05,9.1,37.7,9.1s27.3-3,37.83-9.1a37.18,37.18,0,0,0,12.22-10.79,18.39,18.39,0,0,0,2-6.63C126.88,392.87,121.81,398.59,113.88,403.14Z"/><path class="cls-24" d="M126.36,367.65V368h0a6.33,6.33,0,0,1-.13,1.56h0a21.4,21.4,0,0,1-2,6.63c-2.34,4.68-6.76,9.1-13.26,12.87-20.28,11.7-53.18,11.7-73.33,0-6.11-3.51-10.27-7.67-12.74-12.09h0a19,19,0,0,1-2.21-6.63,8.58,8.58,0,0,1-.13-1.82V354.65c0,7.67,5.07,15.21,15.08,21.06,20.15,11.7,53,11.7,73.33,0,10.14-5.85,15.34-13.65,15.34-21.32v13.26Z"/><g class="cls-3"><path class="cls-22" d="M37.95,332.93c-20.28,11.7-20.41,30.81-.26,42.51s53,11.7,73.33,0,20.41-30.81.26-42.51S58.23,321.23,37.95,332.93Z"/><path class="cls-25" d="M117.78,356.47c-0.91,5.72-5.2,11.18-12.61,15.47-17,9.88-44.59,9.88-61.63,0-7.41-4.29-11.57-9.75-12.48-15.34-1.17-7.28,3-14.69,12.61-20.28,17-9.88,44.59-9.88,61.63,0C114.92,341.9,119.08,349.31,117.78,356.47Z"/><path class="cls-24" d="M117.78,356.47c-0.91,5.72-5.2,11.18-12.61,15.47-17,9.88-44.59,9.88-61.63,0-7.41-4.29-11.57-9.75-12.48-15.34,0.91-5.72,5.2-11.18,12.61-15.47,17-9.88,44.59-9.88,61.63,0C112.84,345.41,116.87,350.87,117.78,356.47Z"/></g><path class="cls-22" d="M126.36,364.92c-1.69,6.37-6.76,12.22-14.82,16.9-20.54,11.83-54,11.83-74.5,0-7.8-4.55-12.87-10.27-14.56-16.51v3c2.34,5.33,7.15,10.27,13.91,14.3,10.4,6,24.05,9.1,37.7,9.1s27.3-3,37.83-9.1c7-4,12-9.1,14.3-14.56h0v-0.39ZM36.65,378.44c10.4,6,24.05,9.1,37.7,9.1s27.3-3,37.83-9.1c7-4,12-9.1,14.3-14.56v-3c-1.69,6.37-6.76,12.09-14.82,16.77-20.54,11.83-54,11.83-74.5,0-7.8-4.55-12.87-10.27-14.56-16.38v3C24.95,369.47,29.76,374.41,36.65,378.44Zm74.89,7.67c-20.54,11.83-54,11.83-74.5,0-7.54-4.42-12.48-9.88-14.3-15.86a18.17,18.17,0,0,0,2.21,6.63h0a34.17,34.17,0,0,0,11.57,10c10.4,6,24.05,9.1,37.7,9.1s27.3-3,37.83-9.1a37.18,37.18,0,0,0,12.22-10.79,18.39,18.39,0,0,0,2-6.63C124.54,375.84,119.47,381.56,111.54,386.11Z"/><path class="cls-24" d="M129,352.56V353h0a6.33,6.33,0,0,1-.13,1.56h0a21.4,21.4,0,0,1-2,6.63c-2.34,4.68-6.76,9.1-13.26,12.87-20.28,11.7-53.18,11.7-73.33,0-6.11-3.51-10.27-7.67-12.74-12.09h0a19,19,0,0,1-2.21-6.63,8.58,8.58,0,0,1-.13-1.82V339.56c0,7.67,5.07,15.21,15.08,21.06,20.15,11.7,53,11.7,73.33,0C123.76,354.78,129,347,129,339.3v13.26Z"/><g class="cls-3"><path class="cls-22" d="M40.55,317.85c-20.28,11.7-20.41,30.81-.26,42.51s53,11.7,73.33,0,20.41-30.81.26-42.51S60.83,306.15,40.55,317.85Z"/><path class="cls-25" d="M120.38,341.51c-0.91,5.72-5.2,11.18-12.61,15.47-17,9.88-44.59,9.88-61.63,0-7.41-4.29-11.57-9.75-12.48-15.34-1.17-7.28,3-14.69,12.61-20.28,17-9.88,44.59-9.88,61.63,0C117.39,326.82,121.55,334.23,120.38,341.51Z"/><path class="cls-24" d="M120.38,341.51c-0.91,5.72-5.2,11.18-12.61,15.47-17,9.88-44.59,9.88-61.63,0-7.41-4.29-11.57-9.75-12.48-15.34,0.91-5.72,5.2-11.18,12.61-15.47,17-9.88,44.59-9.88,61.63,0C115.31,330.46,119.47,335.92,120.38,341.51Z"/></g><path class="cls-22" d="M129,350c-1.69,6.37-6.76,12.22-14.82,16.9-20.54,11.83-54,11.83-74.5,0-7.8-4.55-12.87-10.27-14.56-16.51v3c2.34,5.33,7.15,10.27,13.91,14.3,10.4,6,24.05,9.1,37.7,9.1s27.3-3,37.83-9.1c7-4,12-9.1,14.3-14.56h0v-0.52ZM39.25,363.36c10.4,6,24.05,9.1,37.7,9.1s27.3-3,37.83-9.1c7-4,12-9.1,14.3-14.56v-3c-1.69,6.37-6.76,12.09-14.82,16.77-20.54,11.83-54,11.83-74.5,0C32,358,26.9,352.3,25.21,346.19v3C27.55,354.38,32.36,359.33,39.25,363.36ZM114.14,371c-20.54,11.83-54,11.83-74.5,0-7.54-4.42-12.48-9.88-14.3-15.86a18.17,18.17,0,0,0,2.21,6.63h0a34.17,34.17,0,0,0,11.57,10c10.4,6,24.05,9.1,37.7,9.1s27.3-3,37.83-9.1A37.18,37.18,0,0,0,126.88,361a18.39,18.39,0,0,0,2-6.63C127.14,360.76,122.07,366.48,114.14,371Z"/><path class="cls-24" d="M126.62,335.53v0.39h0a6.33,6.33,0,0,1-.13,1.56h0a21.4,21.4,0,0,1-2,6.63c-2.34,4.68-6.76,9.1-13.26,12.87-20.28,11.7-53.18,11.7-73.33,0-6.11-3.51-10.27-7.67-12.74-12.09h0A19,19,0,0,1,23,338.26a8.58,8.58,0,0,1-.13-1.82V322.53c0,7.67,5.07,15.21,15.08,21.06,20.15,11.7,53,11.7,73.33,0,10.14-5.85,15.34-13.65,15.34-21.32v13.26Z"/><g class="cls-3"><path class="cls-22" d="M38.21,300.82c-20.28,11.7-20.41,30.81-.26,42.51s53,11.7,73.33,0,20.41-30.81.26-42.51S58.49,289.12,38.21,300.82Z"/><path class="cls-25" d="M118,324.48c-0.91,5.72-5.2,11.18-12.61,15.47-17,9.88-44.59,9.88-61.63,0-7.41-4.29-11.57-9.75-12.48-15.34-1.17-7.28,3-14.69,12.61-20.28,17-9.88,44.59-9.88,61.63,0C115,309.79,119.21,317.2,118,324.48Z"/><path class="cls-24" d="M118,324.48c-0.91,5.72-5.2,11.18-12.61,15.47-17,9.88-44.59,9.88-61.63,0-7.41-4.29-11.57-9.75-12.48-15.34,0.91-5.72,5.2-11.18,12.61-15.47,17-9.88,44.59-9.88,61.63,0C113,313.3,117.13,318.76,118,324.48Z"/></g><path class="cls-22" d="M126.62,332.8c-1.69,6.37-6.76,12.22-14.82,16.9-20.54,11.83-54,11.83-74.5,0-7.8-4.55-12.87-10.27-14.56-16.51v3c2.34,5.33,7.15,10.27,13.91,14.3,10.4,6,24.05,9.1,37.7,9.1s27.3-3,37.83-9.1c7-4,12-9.1,14.3-14.56h0v-0.39ZM36.91,346.32c10.4,6,24.05,9.1,37.7,9.1s27.3-3,37.83-9.1c7-4,12-9.1,14.3-14.56v-3c-1.69,6.37-6.76,12.09-14.82,16.77-20.54,11.83-54,11.83-74.5,0-7.8-4.55-12.87-10.27-14.56-16.38v3C25.21,337.35,30,342.29,36.91,346.32ZM111.8,354c-20.54,11.83-54,11.83-74.5,0-7.54-4.42-12.48-9.88-14.3-15.86a18.17,18.17,0,0,0,2.21,6.63h0a34.17,34.17,0,0,0,11.57,10c10.4,6,24.05,9.1,37.7,9.1s27.3-3,37.83-9.1A37.18,37.18,0,0,0,124.54,344a18.39,18.39,0,0,0,2-6.63C124.8,343.72,119.73,349.44,111.8,354Z"/><polygon class="cls-20" points="213.92 201.28 171.15 225.84 171.15 207.22 213.92 182.6 213.92 201.28"/><path class="cls-24" d="M170.71,165.5c6.69-3,11.81-.42,11.81,5.67s-5.12,13.9-11.81,17.68c-7.15,4-13.3,1.95-13.3-4.91S163.57,168.73,170.71,165.5Z"/><path class="cls-27" d="M172.51,182.8a16.37,16.37,0,0,1,1.44-2.6c0.94-1.11,4.64-5.34,4.64-5.34a12.55,12.55,0,0,1-2.07,3.92C175.61,179.93,172.51,182.8,172.51,182.8Z"/><path class="cls-27" d="M171.58,184.54a7,7,0,0,1,.93-1.49c1.12-.93,4.68-4.58,4.68-4.58a16.08,16.08,0,0,1-2,3.26A37.88,37.88,0,0,1,171.58,184.54Z"/><path class="cls-27" d="M173.95,179.94s1.26-2.6,1.7-3.29l3.94-6a5,5,0,0,1-1,3.9C177.7,175.62,173.95,179.94,173.95,179.94Z"/><path class="cls-27" d="M168.88,184.76a3.72,3.72,0,0,0-1.51-1.06c-1-.1-5.18-0.35-5.18-0.35a3.29,3.29,0,0,0,2.37,1.79A25,25,0,0,0,168.88,184.76Z"/><path class="cls-27" d="M169.82,185.5a1.53,1.53,0,0,0-.95-0.48,47.32,47.32,0,0,1-5.07.56,3.84,3.84,0,0,0,2.19,1.15A23.43,23.43,0,0,0,169.82,185.5Z"/><path class="cls-27" d="M167.36,183.43a13.33,13.33,0,0,0-1.84-1.53l-4.51-2s-0.56,2.81,1.18,3.09C163.21,183.13,167.36,183.43,167.36,183.43Z"/><polygon class="cls-22" points="170.71 169.15 163.82 176.02 165.04 179.74 168.09 179.64 168.09 176.03 168.64 175.76 168.64 174.86 169.11 174.63 169.11 175.52 169.66 175.25 169.66 179.59 169.94 179.59 169.94 172.66 170.48 172.4 170.48 171.09 170.94 170.87 170.94 172.17 171.48 171.91 171.48 178.8 171.76 178.52 171.76 173.05 172.29 172.78 172.29 171.95 172.75 171.73 172.75 172.56 173.27 172.3 173.27 176.99 176.09 174.14 177.16 169.52 170.71 169.15"/><polygon class="cls-28" points="173.16 177.78 173.16 178.89 172.62 179.18 172.62 180.02 172.41 180.13 172.41 179.28 171.86 179.57 171.86 179.29 171.37 179.86 171.37 181.08 170.82 181.37 170.82 182.09 170.61 182.2 170.61 181.49 170.05 181.78 170.05 180.55 169.55 180.49 169.55 181.12 168.99 181.41 168.99 182.05 168.78 182.17 168.78 181.53 168.21 181.82 168.21 180.34 165.59 180.5 170.71 185.19 175.6 175.38 173.16 177.78"/><path class="cls-27" d="M85.93,334.65s3.08-5.12,5.33-6.26c3.49-1.78,15.47-7.44,15.47-7.44s0.72,4.18-3.92,7.27C99.66,330.32,85.93,334.65,85.93,334.65Z"/><path class="cls-27" d="M81.77,339.92c0.18,0,2.48-3.84,4.35-4.28,5.41-1.26,19.8-7.29,19.8-7.29s-1.71,6-5.57,7.87C96.76,338,81.77,339.92,81.77,339.92Z"/><path class="cls-27" d="M91,327.62s3.37-5.06,4.64-6.08l9.11-7.33s5.06,3.85,1.37,6C103.69,321.6,91,327.62,91,327.62Z"/><path class="cls-27" d="M68.08,334.65s-3.08-5.12-5.32-6.26C59.27,326.61,47.3,321,47.3,321s-0.73,4.18,3.91,7.27C54.36,330.32,68.08,334.65,68.08,334.65Z"/><path class="cls-27" d="M72.23,339.92c-0.18,0-2.47-3.84-4.34-4.28-5.41-1.26-19.79-7.29-19.79-7.29s1.7,6,5.56,7.87C57.24,338,72.23,339.92,72.23,339.92Z"/><path class="cls-27" d="M63,327.62s-3.37-5.06-4.63-6.08l-9.1-7.33s-5.06,3.85-1.38,6C50.34,321.6,63,327.62,63,327.62Z"/><polygon class="cls-22" points="77.02 307.59 58.99 311.17 59.05 317.06 67.96 319.66 69.39 313.79 70.98 313.79 71.21 312.61 72.53 312.61 72.35 313.79 73.94 313.79 73.21 321.19 74.21 321.48 74.99 310.73 76.42 310.73 76.45 309.33 77.63 309.33 77.66 310.73 79.09 310.73 79.87 321.5 80.88 321.21 79.99 312.25 81.5 312.25 81.35 311.23 82.61 311.23 82.8 312.25 84.31 312.25 86.12 319.67 95.04 317.06 95.05 311.17 77.02 307.59"/><polygon class="cls-29" points="86.07 321.17 86.67 323.72 84.51 323.72 84.9 325.87 84.03 325.87 83.69 323.72 81.53 323.72 81.46 323.04 79.61 323.79 79.81 326.98 77.48 326.98 77.5 329.07 76.58 329.07 76.6 326.98 74.27 326.98 74.47 323.79 72.63 323.04 72.46 324.55 70.26 324.55 70 326.2 69.13 326.2 69.42 324.55 67.22 324.55 68.01 321.17 59.9 318.86 77.04 340.73 94.19 318.86 86.07 321.17"/><path class="cls-27" d="M454.09,288s-1.64-3.8-1.25-5.11c0.63-2.08,3.21-9.36,3.21-9.36s2.83,3.23,2.3,6.52C458,282.16,454.09,288,454.09,288Z"/><path class="cls-27" d="M455.15,291.68c0.05-.06-1-2.5-0.41-3.19,1.75-2,5.12-9.06,5.12-9.06s2.08,4.14,1.34,6.07C460.52,287.23,455.15,291.68,455.15,291.68Z"/><path class="cls-27" d="M452.22,282.43a40.61,40.61,0,0,1-1.79-5.77c-0.08-1.93-.39-9.25-0.39-9.25s5.8,2.79,5.2,5.59C454.87,274.79,452.22,282.43,452.22,282.43Z"/><path class="cls-27" d="M445.29,292.65s-6-1.93-8.44-1.95c-4.12,0-21,.22-21,0.22a33.36,33.36,0,0,0,13.24,3.37C433.53,294.44,445.29,292.65,445.29,292.65Z"/><path class="cls-27" d="M450.89,294.06c-0.11,0-3.7-1.15-5-.86-3.84.89-18.83,2.22-18.83,2.22s7.64,2.47,11.65,2.15C442.16,297.29,450.89,294.06,450.89,294.06Z"/><path class="cls-27" d="M436.23,290.16s-8.09-2.38-10.39-2.73l-20.94-3.16a12.06,12.06,0,0,0,10.21,5.86C419.5,290.28,436.23,290.16,436.23,290.16Z"/><polygon class="cls-22" points="420.04 266.31 408.65 277.14 419.71 283.4 430.63 282.77 423.5 276.61 424.88 276.1 423.22 274.69 424.38 274.27 426.04 275.67 427.38 275.18 436.17 282.45 437.17 282.39 423.57 271.23 424.87 270.8 422.58 268.95 423.68 268.6 425.96 270.42 427.22 270 440.9 280.78 441.26 280.26 430.2 271.6 431.43 271.16 429.88 269.97 430.93 269.61 432.48 270.79 433.68 270.37 443.15 277.5 446.4 272.73 440.54 266.21 420.04 266.31"/><polygon class="cls-30" points="444.49 278.81 447 280.71 445.74 281.28 447.69 282.77 447.21 283 445.26 281.5 443.98 282.08 443.33 281.58 442.88 282.66 445.71 284.9 444.38 285.53 446.08 286.89 445.57 287.14 443.88 285.78 442.51 286.43 439.69 284.12 437.75 284.09 439.16 285.26 437.76 285.91 439.21 287.13 438.67 287.39 437.22 286.16 435.78 286.82 432.52 284.02 423.23 284.72 453.52 293.21 447.44 274.66 444.49 278.81"/><polygon class="cls-20" points="213.92 254.5 171.15 279.06 171.15 260.44 213.92 235.82 213.92 254.5"/></svg>