<?xml version="1.0" encoding="utf-8"?>
<!-- Generator: Adobe Illustrator 19.2.1, SVG Export Plug-In . SVG Version: 6.00 Build 0)  -->
<svg version="1.1" id="Layer_1" xmlns="http://www.w3.org/2000/svg" xmlns:xlink="http://www.w3.org/1999/xlink" x="0px" y="0px"
	 viewBox="0 0 720 720" style="enable-background:new 0 0 720 720;" xml:space="preserve">
<style type="text/css">
	.st0{fill:#22404D;}
	.st1{fill:#93D3CC;}
	.st2{fill:#5F9991;}
	.st3{fill:#407C91;}
	.st4{fill:#DEB325;}
	.st5{fill:#AF8E31;}
</style>
<g id="layer1">
	<g>
		<path class="st0" d="M351.2,47.4c-16.7,2.9-25.9,6.4-36.8,13.7c-20.1,13.5-32.5,32.5-36.8,57.1c-1.1,6.2-1,15.6,0.2,27.9
			c0.2,1.9-0.4,2.8-3.1,4c-5.7,2.7-21.4,8.7-23,8.7c-0.4,0-2.2,0.6-3.8,1.4c-1.8,0.7-8,3.1-13.9,5.3c-5.9,2.2-14.5,5.3-19,7
			c-4.5,1.7-8.5,3-9,3c-0.5,0-3.2-3.4-6.2-7.7c-13.7-19.3-29.9-30.2-52.7-35.7c-7.1-1.8-24.4-1.8-32.4,0
			c-39.4,8.2-67,41.6-67.2,81.6c-0.1,11.9,0.9,17.7,5,29c15.6,42.6,61.8,64.5,105.4,50.1c4.1-1.4,5.3-1.5,6.5-0.4
			c1.3,1.1,32.6,52.5,33.7,55.4c0.2,0.5,0.9,1.7,1.6,2.5c3,3.6,2.4,5.6-5.9,18.4c-24.8,38.3-26.5,40.6-28.5,40.6
			c-1.2,0-2.5-0.4-3-0.8c-0.9-0.8-7.7-2.9-15.7-5c-5.2-1.4-27.1-1.4-32.3-0.1c-27.2,7-46.6,21.9-57.9,44.7
			c-6.4,12.8-8.7,22.9-8.7,37.3c0,14.4,2.4,24.6,8.7,37.3c11.3,22.7,32.1,38.8,57.5,44.4c9.9,2.2,26.4,1.9,36.3-0.6
			c16.6-4.1,30.2-12.3,42.4-25.6c4-4.3,8-7.9,8.7-7.9c0.8,0,18.4,8.5,39.2,19c37.4,18.8,37.8,19.1,37.6,21.9
			c-1.8,22-1.4,28,2.7,40.9c9.1,28.7,32.2,49.6,62.8,56.9c7,1.7,26.4,1.7,33.4,0c39.5-9.3,66.8-42.9,66.8-82.1
			c0-13.7-4.5-30.2-11-41c-1.9-3-2.6-5.1-2.1-6.1c0.9-1.6,9.1-10.5,22.8-24.7c27.3-28.4,46.4-48.3,78.2-81.8c4.2-4.4,8-8.1,8.3-8.1
			c0.4,0,3.8,1.8,7.5,3.9c21.4,12.5,46,15.1,68.9,7.3c27.6-9.3,48.3-32.6,55.3-62.3c1.7-7,1.7-26.4,0-33.4
			c-6.1-25.7-23.5-48-45.4-58.2c-26.8-12.6-54.1-11.2-79.7,3.7c-5.8,3.4-8,4.2-9.3,3.5c-2.2-1.3-110.2-109.4-110.2-110.4
			c0-0.4,2-4.1,4.4-8.3c13-22.2,15.7-46.5,7.8-69.7c-9.1-27-32-47.8-60.3-54.8C373.1,47.8,355.4,46.7,351.2,47.4z M375.2,69.9
			c33.4,8.6,53.9,43.2,45.4,76.1c-4.5,17.1-17.1,32.7-32.5,40.3c-24.7,12.2-52.8,7.6-72.2-11.8c-20.9-20.9-24.5-52.3-8.7-77.3
			c7.8-12.3,22.8-23.4,36.9-27.3C350.6,68.2,368.5,68.2,375.2,69.9z M145.1,153.3c10.7,2.8,20,7.9,27.4,14.5
			c26.4,24.3,27.3,64.8,1.9,90.2c-15.6,15.7-38.1,22.1-58.6,16.8c-16.6-4.3-28.5-13-38-27.6c-6.9-10.5-9.4-19.6-9.4-33.8
			c0-16.3,5.3-30,16.3-41.7c6.9-7.5,16.2-13.5,26.2-16.9c6.8-2.4,9.7-2.7,18.6-2.8C135.6,151.9,142.1,152.5,145.1,153.3z M290,175.7
			c2.2,3.4,6.6,9.1,9.9,12.7l5.9,6.4l-5.2,8.3c-2.9,4.5-7.4,11.6-10,15.6c-2.6,4-9.5,14.8-15.5,24.1c-6,9.1-11.8,18.2-12.8,19.8
			c-1.1,1.8-2.6,3.2-3.4,3.2c-0.8,0-12.2-5.4-25.3-12c-21-10.5-23.9-12.2-23.5-13.9c3.5-15.9,3.8-18.4,3.4-29.1
			c-0.3-6.2-0.8-12-1.2-12.9c-0.9-2,2.4-3.6,20.5-10c12.7-4.5,28.4-10.3,38.8-14.2c5.7-2.2,11.3-3.9,12.4-4
			C285.6,169.6,287.1,171.2,290,175.7z M467.5,253l55.9,55.9L519,316c-2.5,4-5.2,9.2-6.2,11.7c-4.6,11.6-4.3,11.1-7.8,10.4
			c-1.8-0.3-6.5-1-10.5-1.6c-4-0.5-12.2-1.6-18.2-2.5c-5.9-0.8-14.7-2-19.5-2.6c-13.1-1.6-13-1.5-13.7-9.4
			c-2.6-28.7-19.5-54.2-45-67.4c-23.2-12.1-50.1-12.5-74.4-1.1c-10,4.7-20.9,13.5-29.4,23.7c-1.9,2.4-3.9,4.2-4.6,4.2
			c-1.8,0-10.3-4.9-10.3-6c0-0.5,2.6-4.9,5.7-9.8c3-4.9,6.3-9.9,7.1-11.3c0.8-1.3,5.4-8.4,10.2-15.8c4.9-7.5,11.3-17.3,14.2-21.9
			c6.4-9.8,7.6-11.1,9.9-9.8c7.1,3.8,22.1,6.9,33.4,6.9c16.6,0,30.8-4.2,45.7-13.6c2.7-1.7,5.1-3.1,5.4-3.1
			C411.4,197.1,436.7,222.3,467.5,253z M224,272.5c16.3,8.2,22.6,12,22.5,13.2c-0.1,0.9-2.6,5.3-5.5,9.8
			c-2.9,4.4-8.3,12.8-12.1,18.5c-13.3,20.6-13.5,20.8-15.1,19.2c-0.9-0.8-2.5-3.1-3.5-5.2c-1.7-3.2-15.5-26.5-18.2-30.7
			c-0.6-0.8-1.3-2.2-1.7-2.9c-0.4-0.8-2.4-4.2-4.5-7.7l-3.8-6.2l6.8-7.1c3.7-3.9,7.7-8.2,8.5-9.8c1-1.5,2.3-2.7,2.9-2.7
			C200.9,260.9,211.6,266.2,224,272.5z M368.8,266.8c14.1,2.4,26.5,8.7,36.1,18.8c6.9,7.3,11.3,14.6,14.6,24.5
			c2.5,7.2,2.8,9.8,2.7,18.7c-0.1,15.2-3.2,24.8-12.4,37.5c-2.7,3.6-6.7,8.1-8.9,9.8c-2.3,1.8-4.6,3.7-5.3,4.3
			c-2.6,2.5-15.9,8.2-22.6,9.6c-13.6,3-27.1,1.4-40.4-5c-3.9-2-7.7-3.9-8.3-4.6c-0.7-0.6-3-2.6-5.3-4.3
			c-7.8-6.1-15.7-18.8-19.5-31.1c-2.7-8.8-2.5-24.5,0.5-33.4c6.5-19.9,21.2-35.6,39.4-41.6C350.7,266.1,358.6,265.3,368.8,266.8z
			 M273.6,297.3c3.1,1.6,6,3.3,6.4,3.9c0.3,0.5-0.3,5.2-1.4,10.3c-6.9,31.4,5.3,64.3,30.8,83.3c11.5,8.5,19.2,12.2,32.4,15.3
			l6.9,1.7l0,47.5l0,47.5l-6.9,1.7c-3.7,0.9-8.8,2.4-11.3,3.3c-9.1,3.4-8.6,3.7-15.7-8c-3.5-5.8-6.6-11-6.8-11.6
			c-0.2-0.6-3.8-6.6-8-13.4c-4.1-6.8-7.8-13-8.2-13.7c-0.4-0.8-1.1-2.2-1.7-2.9c-2-3-13.6-22.3-15.9-26.5
			c-1.4-2.5-12.4-20.9-24.4-41.1c-12.1-20.2-22.1-37.6-22.3-38.5c-0.3-1,1.3-4.2,3.4-7.5c3.8-5.5,14.1-21.4,26.3-40.4
			c6.3-9.9,9.1-13.9,9.8-13.9C267.6,294.3,270.3,295.6,273.6,297.3z M601,298.8c14.6,3,24.7,8.7,34.5,19.3
			c11,11.9,16.4,25.7,16.3,42c0,16.4-5.3,30.2-16.3,42c-24.7,26.6-64.4,27.5-89.9,2.1c-24.7-24.8-24.7-63.3,0.1-88.3
			c8.3-8.3,19.2-14.3,29.9-16.7c3.2-0.7,6.4-1.4,6.9-1.5C585.1,296.9,594.9,297.5,601,298.8z M454.3,352.3c4,0.5,12.5,1.6,18.7,2.5
			c6.2,0.9,15.9,2.2,21.5,2.9c6.3,0.8,10.5,1.8,11,2.6c0.5,0.8,0.9,3.2,0.9,5.5c0,6.3,3.4,20.2,7,28.3c2,4.4,8.8,15.6,9.8,16
			c2.4,0.9,0,4.4-8.5,13.5c-14.2,14.8-24.5,25.5-46.1,48.1c-10.8,11.3-24.7,25.9-31,32.4c-6.2,6.5-13.5,14.1-16.1,16.9
			c-4.8,5.4-7.2,6.3-9.3,3.7c-1.6-1.9-13.9-9.3-19.2-11.5c-4.5-2-11.9-4.2-17.7-5.4l-3.9-0.9l0-47.5l0-47.6l3.9-0.9
			c13.8-2.9,24.1-7.5,34.5-15.4c13.9-10.5,21.1-20.2,29.8-40.5c1.9-4.4,2.3-4.7,4.7-4.2C445.8,351.1,450.3,351.8,454.3,352.3z
			 M216.3,378.5c0.4,1,3.3,6.2,6.7,11.6c3.3,5.4,6.3,10.5,6.7,11.3c0.8,1.7,2.2,4,10.5,17.7c3.1,5.1,18.4,30.7,33.9,57
			c15.5,26.2,28.6,48,29.1,48.5c1.4,1.6,1.2,2.2-3.1,7.2c-2.3,2.6-4.9,5.7-5.9,7c-1.1,1.3-3.3,4.5-5,7.2c-1.9,3.1-3.5,4.8-4.6,4.6
			c-2.7-0.5-74.7-37.1-74.7-38c0-0.5,0.9-4.3,2-8.5c3.2-13.1,2.4-32.6-2.1-45.1c-4.4-12.1-11.8-24-19.9-31.9
			c-2.5-2.4-4.5-4.9-4.5-5.7c0-0.7,2.9-5.9,6.7-11.6c3.6-5.6,9.8-15.3,13.8-21.5C212.9,377,215.1,375.1,216.3,378.5z M145.1,424.6
			c13.9,3.5,27.6,12.8,36,24.4c3.4,4.9,4.2,6.3,7.4,13.4c6.3,14.3,5.7,34.9-1.5,49.8c-7.8,16.2-24.2,29.6-41.7,34.1
			c-7.8,2-21.5,2-29.3,0c-20.8-5.2-37.7-20.6-45.1-41.1c-1.9-5.1-2.2-8.1-2.2-19.7c0-11.7,0.3-14.6,2.2-19.7
			c7.3-20,23.2-34.9,43.6-40.7C122.6,422.6,136.8,422.5,145.1,424.6z M374.6,529.1c26.8,6.9,45,28.2,47.9,55.9
			c0.7,6.7-1,17.7-3.8,25.9c-6.4,18.5-23.9,34.4-43.5,39.5c-7.1,1.9-23.4,1.9-30.4,0c-14.6-3.8-29.7-14.6-37.6-27.3
			c-15.7-24.9-12.2-56.4,8.7-77.2C331.6,530,354,523.7,374.6,529.1z"/>
	</g>
	<g>
		<g>
			<path class="st1" d="M360,130.4c13.9,0,18.9-13.9,20.3-25.4c1.6-14.1-5.1-24.7-20.3-24.7c-15.2,0-21.9,10.6-20.3,24.7
				C341.1,116.5,346.1,130.4,360,130.4z"/>
		</g>
		<g>
			<path class="st1" d="M397.7,163.7c-0.2-4.4-0.7-8.9-1.4-13.3c-0.9-5.3-2.1-13.1-6.8-16.5c-2.7-2-6.1-2.7-9.2-3.9
				c-1.5-0.6-2.8-1.2-4.1-1.8c-4.2,4.6-9.8,7.1-16.2,7.1c-6.4,0-11.9-2.4-16.2-7.1c-1.3,0.7-2.6,1.2-4.1,1.8
				c-3.1,1.2-6.5,1.9-9.2,3.9c-4.6,3.5-5.8,11.2-6.8,16.5c-0.8,4.4-1.3,8.8-1.5,13.3c-0.1,3.4,1.6,3.9,4.5,5
				c3.6,1.3,7.3,2.3,11.1,3.1c7.2,1.5,14.7,2.7,22.1,2.8c7.4-0.1,14.9-1.2,22.1-2.8c3.8-0.8,7.5-1.8,11.1-3.1
				C396.1,167.6,397.8,167.1,397.7,163.7L397.7,163.7z"/>
		</g>
	</g>
	<g>
		<g>
			<path class="st2" d="M131.4,211.2c13.9,0,18.9-13.9,20.3-25.4c1.6-14.1-5.1-24.7-20.3-24.7c-15.2,0-21.9,10.6-20.3,24.7
				C112.5,197.2,117.5,211.2,131.4,211.2z"/>
		</g>
		<g>
			<path class="st2" d="M169.1,244.4c-0.2-4.4-0.7-8.9-1.4-13.3c-0.9-5.3-2.1-13.1-6.8-16.5c-2.7-2-6.1-2.7-9.2-3.9
				c-1.5-0.6-2.8-1.2-4.1-1.8c-4.2,4.6-9.8,7.1-16.2,7.1c-6.4,0-11.9-2.4-16.2-7.1c-1.3,0.7-2.6,1.2-4.1,1.8
				c-3.1,1.2-6.5,1.9-9.2,3.9c-4.6,3.5-5.8,11.2-6.8,16.5c-0.8,4.4-1.3,8.8-1.5,13.3c-0.1,3.4,1.6,3.9,4.5,5
				c3.6,1.3,7.3,2.3,11.1,3.1c7.2,1.5,14.7,2.7,22.1,2.8c7.4-0.1,14.9-1.2,22.1-2.8c3.8-0.8,7.5-1.8,11.1-3.1
				C167.5,248.3,169.2,247.8,169.1,244.4L169.1,244.4z"/>
		</g>
	</g>
	<g>
		<g>
			<path class="st3" d="M134,483.7c13.9,0,18.9-13.9,20.3-25.4c1.6-14.1-5.1-24.7-20.3-24.7c-15.2,0-21.9,10.6-20.3,24.7
				C115,469.7,120,483.7,134,483.7z"/>
		</g>
		<g>
			<path class="st3" d="M168.5,516.9c-0.2-4.4-0.7-8.9-1.4-13.3c-0.9-5.3-2.1-13.1-6.8-16.5c-2.7-2-6.1-2.7-9.2-3.9
				c-1.5-0.6-2.8-1.2-4.1-1.8c-4.2,4.6-9.8,7.1-16.2,7.1c-6.4,0-11.9-2.4-16.2-7.1c-1.3,0.7-2.6,1.2-4.1,1.8
				c-3.1,1.2-6.5,1.9-9.2,3.9c-4.6,3.5-5.8,11.2-6.8,16.5c-0.8,4.4-1.3,8.8-1.5,13.3c-0.1,3.4,1.6,3.9,4.5,5
				c3.6,1.3,7.3,2.3,11.1,3.1c7.2,1.5,14.7,2.7,22.1,2.8c7.4-0.1,14.9-1.2,22.1-2.8c3.8-0.8,7.5-1.8,11.1-3.1
				C167,520.8,168.7,520.3,168.5,516.9L168.5,516.9z"/>
		</g>
	</g>
	<g>
		<g>
			<path class="st0" d="M360.8,326.4c13.9,0,18.9-13.9,20.3-25.4c1.6-14.1-5.1-24.7-20.3-24.7c-15.2,0-21.9,10.6-20.3,24.7
				C341.9,312.4,346.9,326.4,360.8,326.4z"/>
		</g>
		<g>
			<path class="st0" d="M398.5,359.6c-0.2-4.4-0.7-8.9-1.4-13.3c-0.9-5.3-2.1-13.1-6.8-16.5c-2.7-2-6.1-2.7-9.2-3.9
				c-1.5-0.6-2.8-1.2-4.1-1.8c-4.2,4.6-9.8,7.1-16.2,7.1c-6.4,0-11.9-2.4-16.2-7.1c-1.3,0.7-2.6,1.2-4.1,1.8
				c-3.1,1.2-6.5,1.9-9.2,3.9c-4.6,3.5-5.8,11.2-6.8,16.5c-0.8,4.4-1.3,8.8-1.5,13.3c-0.1,3.4,1.6,3.9,4.5,5
				c3.6,1.3,7.3,2.3,11.1,3.1c7.2,1.5,14.7,2.7,22.1,2.8c7.4-0.1,14.9-1.2,22.1-2.8c3.8-0.8,7.5-1.8,11.1-3.1
				C396.9,363.5,398.6,363.1,398.5,359.6L398.5,359.6z"/>
		</g>
	</g>
	<g>
		<g>
			<path class="st4" d="M363.8,591c13.9,0,18.9-13.9,20.3-25.4c1.6-14.1-5.1-24.7-20.3-24.7c-15.2,0-21.9,10.6-20.3,24.7
				C344.8,577.1,349.8,591,363.8,591z"/>
		</g>
		<g>
			<path class="st4" d="M401.5,624.2c-0.2-4.4-0.7-8.9-1.4-13.3c-0.9-5.3-2.1-13.1-6.8-16.5c-2.7-2-6.1-2.7-9.2-3.9
				c-1.5-0.6-2.8-1.2-4.1-1.8c-4.2,4.6-9.8,7.1-16.2,7.1c-6.4,0-11.9-2.4-16.2-7.1c-1.3,0.7-2.6,1.2-4.1,1.8
				c-3.1,1.2-6.5,1.9-9.2,3.9c-4.6,3.5-5.8,11.2-6.8,16.5c-0.8,4.4-1.3,8.8-1.5,13.3c-0.1,3.4,1.6,3.9,4.5,5
				c3.6,1.3,7.3,2.3,11.1,3.1c7.2,1.5,14.7,2.7,22.1,2.8c7.4-0.1,14.9-1.2,22.1-2.8c3.8-0.8,7.5-1.8,11.1-3.1
				C399.9,628.2,401.6,627.7,401.5,624.2L401.5,624.2z"/>
		</g>
	</g>
	<g>
		<g>
			<path class="st5" d="M591.4,364.7c13.9,0,18.9-13.9,20.3-25.4c1.6-14.1-5.1-24.7-20.3-24.7c-15.2,0-21.9,10.6-20.3,24.7
				C572.5,350.8,577.5,364.7,591.4,364.7z"/>
		</g>
		<g>
			<path class="st5" d="M629.1,397.9c-0.2-4.4-0.7-8.9-1.4-13.3c-0.9-5.3-2.1-13.1-6.8-16.5c-2.7-2-6.1-2.7-9.2-3.9
				c-1.5-0.6-2.8-1.2-4.1-1.8c-4.2,4.6-9.8,7.1-16.2,7.1c-6.4,0-11.9-2.4-16.2-7.1c-1.3,0.7-2.6,1.2-4.1,1.8
				c-3.1,1.2-6.5,1.9-9.2,3.9c-4.6,3.5-5.8,11.2-6.8,16.5c-0.8,4.4-1.3,8.8-1.5,13.3c-0.1,3.4,1.6,3.9,4.5,5
				c3.6,1.3,7.3,2.3,11.1,3.1c7.2,1.5,14.7,2.7,22.1,2.8c7.4-0.1,14.9-1.2,22.1-2.8c3.8-0.8,7.5-1.8,11.1-3.1
				C627.5,401.9,629.2,401.4,629.1,397.9L629.1,397.9z"/>
		</g>
	</g>
</g>
</svg>
