<?xml version="1.0" encoding="UTF-8" standalone="no"?><svg id="Layer_1" data-name="Layer 1" xmlns="http://www.w3.org/2000/svg" viewBox="0 0 800 400"><defs><style>.cls-1{fill:#23404d;}.cls-2{fill:#93d3cc;}</style></defs><title>WarofCoins Club NAME</title><polygon class="cls-1" points="200.44 46.73 180.69 126.38 156.14 46.73 113.27 46.73 88.87 126.19 69.13 46.73 25.62 46.73 59.13 165.82 111.84 165.82 134.71 94.04 157.57 165.82 210.28 165.82 243.79 46.73 200.44 46.73"/><path class="cls-1" d="M366.05,74.52H324.13l-2.21,15.6a43.52,43.52,0,0,0-36.69-18.46q-13.34,0-23.42,6a41.35,41.35,0,0,0-15.72,17q-5.64,11-5.64,25.56,0,14.45,5.64,25.41a41.34,41.34,0,0,0,15.72,17q10.08,6,23.42,6a44.12,44.12,0,0,0,23.1-6,45,45,0,0,0,13.55-12.58l2.25,15.76h41.92l-6.35-45.73Zm-49,55a28.65,28.65,0,0,1-8.65,6.43,23.09,23.09,0,0,1-10.16,2.38,16.84,16.84,0,0,1-9-2.38,16.4,16.4,0,0,1-6-6.43,19.55,19.55,0,0,1-2.14-9.29,20,20,0,0,1,2.14-9.37,16.26,16.26,0,0,1,6-6.51,16.84,16.84,0,0,1,9-2.38,23.09,23.09,0,0,1,10.16,2.38,28.06,28.06,0,0,1,8.65,6.51,22.74,22.74,0,0,1,5.16,9.37A22.12,22.12,0,0,1,317.07,129.54Z"/><path class="cls-1" d="M456.08,71.9q-2.54-.24-4.92-0.24-9.53,0-15.88,4.13A32.83,32.83,0,0,0,424.8,87a62.83,62.83,0,0,0-5,10.92L415.9,74.52H374.62L381,106.27v59.54H421.3V130.73q0-10.32,3.25-15.88a17.48,17.48,0,0,1,8.49-7.7A29.48,29.48,0,0,1,444.33,105q3.33,0,7.62.4t9.69,1.35V72.61Q458.62,72.14,456.08,71.9Z"/><path class="cls-1" d="M562.3,168.67q-18.1,0-31.68-6t-21.12-17A43.69,43.69,0,0,1,502,120.25q0-14.61,7.54-25.56t21.12-17q13.58-6,31.68-6t31.68,6q13.58,6,21.12,17t7.54,25.56a43.71,43.71,0,0,1-7.54,25.41q-7.54,11-21.12,17T562.3,168.67Zm0-29.37A23.44,23.44,0,0,0,573,137.08a15.25,15.25,0,0,0,6.67-6.51,21.57,21.57,0,0,0,2.3-10.32,21.94,21.94,0,0,0-2.3-10.48,15.26,15.26,0,0,0-6.67-6.51,26.76,26.76,0,0,0-21.36,0,15.15,15.15,0,0,0-6.75,6.51,21.54,21.54,0,0,0-2.3,10.32,21.91,21.91,0,0,0,2.3,10.48,15.14,15.14,0,0,0,6.75,6.51A23.53,23.53,0,0,0,562.3,139.3Z"/><path class="cls-1" d="M691.39,73.25q3.17-3,13.18-3A66.37,66.37,0,0,1,715,71q5,0.8,9.92,2.06V44.19q-6.83-1.75-12.54-2.62a84.83,84.83,0,0,0-12.7-.87q-16.51,0-28.1,4.84A36.91,36.91,0,0,0,653.92,60q-5.8,9.23-6,22.94h-18v29.37h17.94v53.51h40.33V112.31h34.14V82.93H688.21V82.46Q688.21,76.26,691.39,73.25Z"/><path class="cls-1" d="M335.83,224.14a57.23,57.23,0,0,1-11.19,28.58,61.87,61.87,0,0,1-24.53,19.05q-15.24,6.83-34.93,6.83-21.28,0-37.15-7.78A59,59,0,0,1,203.33,249q-8.81-14.05-8.81-32.79t8.81-32.79A59.07,59.07,0,0,1,228,161.58q15.88-7.78,37.15-7.78,19.69,0,34.93,6.83a61.92,61.92,0,0,1,24.53,19.05,57.25,57.25,0,0,1,11.19,28.58H294.7a23.94,23.94,0,0,0-5.24-10.56,24.23,24.23,0,0,0-9.92-6.67,40.78,40.78,0,0,0-14.37-2.3,35.37,35.37,0,0,0-15.8,3.26,22.93,22.93,0,0,0-10.08,9.45,29.58,29.58,0,0,0-3.49,14.77,29.13,29.13,0,0,0,3.49,14.69,23.53,23.53,0,0,0,10.08,9.45,34.63,34.63,0,0,0,15.8,3.33,43.48,43.48,0,0,0,14.37-2.14,22.93,22.93,0,0,0,9.92-6.51,24,24,0,0,0,5.24-10.88h41.12Z"/><path class="cls-1" d="M403.63,278.6q-18.1,0-31.68-6t-21.12-17a43.7,43.7,0,0,1-7.54-25.4q0-14.61,7.54-25.56t21.12-17q13.58-6,31.68-6t31.68,6q13.58,6,21.12,17T464,230.17a43.71,43.71,0,0,1-7.54,25.4q-7.54,11-21.12,17T403.63,278.6Zm0-29.37A23.43,23.43,0,0,0,414.35,247a15.25,15.25,0,0,0,6.67-6.51,21.55,21.55,0,0,0,2.3-10.32,21.92,21.92,0,0,0-2.3-10.48,15.26,15.26,0,0,0-6.67-6.51,26.76,26.76,0,0,0-21.36,0,15.15,15.15,0,0,0-6.75,6.51,21.54,21.54,0,0,0-2.3,10.32,21.9,21.9,0,0,0,2.3,10.48A15.14,15.14,0,0,0,393,247,23.53,23.53,0,0,0,403.63,249.23Z"/><path class="cls-1" d="M495.72,177.78q-10.16,0-16.35-4.92t-6.19-13.5q0-8.57,6.19-13.5t16.35-4.92q10.32,0,16.43,4.92t6.11,13.5q0,8.57-6.11,13.5T495.72,177.78Zm-20.17,4.76,20.17,4.13,20.17-4.13v93.2H475.55v-93.2Z"/><path class="cls-1" d="M526.84,184.44h40.33l6.35,38.9v52.4H533.19V217.15Zm78.28-2.86q13.34,0,22.71,5.32a35.86,35.86,0,0,1,14.37,14.93q5,9.61,5,22.47v51.44H606.86V230q0-7.62-4.21-11.75t-11.83-4.13a19,19,0,0,0-9.29,2.14,14.3,14.3,0,0,0-6,6.19,21.27,21.27,0,0,0-2.06,9.77l-11.91-6q2.22-14.92,8.57-24.85a42.44,42.44,0,0,1,15.4-14.85A40.26,40.26,0,0,1,605.12,181.59Z"/><path class="cls-1" d="M774.38,244.62q0,11.43-7.15,19T747.3,274.87q-12.78,3.73-29.93,3.73-17.62,0-31-4.21t-21.12-11.75A25.62,25.62,0,0,1,657,245.1h41a10,10,0,0,0,3.81,4.53,19.25,19.25,0,0,0,7.07,2.7,55.62,55.62,0,0,0,10.72.87,45.67,45.67,0,0,0,11.59-1.11q4-1.11,4-3.18,0-2.38-3.33-3.41A51.42,51.42,0,0,0,721,244l-14.93-1q-17.31-1.11-27.55-4.68t-14.69-9.77a24.64,24.64,0,0,1-4.45-14.77q0-11,6.91-18.1t19.29-10.64a107,107,0,0,1,28.9-3.49,93.51,93.51,0,0,1,28.74,4q12.54,4,20.17,11.19a27.49,27.49,0,0,1,8.89,16.83h-41a8.77,8.77,0,0,0-3.18-4.37,17.75,17.75,0,0,0-6.19-2.86,35.67,35.67,0,0,0-9.21-1q-7.3,0-10.64,1.19t-3.33,3.26a3.38,3.38,0,0,0,2.06,3.33q2.06,1,8.1,1.27l20,1.27q17.15,1,27.07,4.53t14.13,9.61A25.19,25.19,0,0,1,774.38,244.62Z"/><path class="cls-2" d="M403.61,318.14a43.26,43.26,0,0,1-8.46,21.6,46.76,46.76,0,0,1-18.54,14.4q-11.52,5.16-26.4,5.16-16.08,0-28.08-5.88a44.63,44.63,0,0,1-18.66-16.5q-6.66-10.62-6.66-24.78t6.66-24.78a44.64,44.64,0,0,1,18.66-16.5q12-5.88,28.08-5.88,14.88,0,26.4,5.16a46.79,46.79,0,0,1,18.54,14.4,43.27,43.27,0,0,1,8.46,21.6H372.53a18.11,18.11,0,0,0-4-8,18.3,18.3,0,0,0-7.5-5,30.8,30.8,0,0,0-10.86-1.74,26.73,26.73,0,0,0-11.94,2.46,17.33,17.33,0,0,0-7.62,7.14A22.35,22.35,0,0,0,328,312.14a22,22,0,0,0,2.64,11.1,17.78,17.78,0,0,0,7.62,7.14,26.18,26.18,0,0,0,11.94,2.52,32.85,32.85,0,0,0,10.86-1.62,17.33,17.33,0,0,0,7.5-4.92,18.16,18.16,0,0,0,4-8.22h31.08Z"/><path class="cls-2" d="M412,264.74h30.48v92.4H412v-92.4Z"/><path class="cls-2" d="M542.57,357.14l-4.8-24.72V288.14H507.29V321a18.22,18.22,0,0,1-1.38,7.5,9.5,9.5,0,0,1-4.08,4.56,14.1,14.1,0,0,1-6.9,1.5q-5.4,0-8.34-3.12t-2.94-8.76V288.14H453.17V327a37,37,0,0,0,3.66,16.86,26.51,26.51,0,0,0,10.62,11.28,32.8,32.8,0,0,0,16.68,4,29.18,29.18,0,0,0,14.46-3.72A32.11,32.11,0,0,0,510,344.25l2.1,12.89h30.48Z"/><path class="cls-2" d="M637.66,303.38a31.4,31.4,0,0,0-11.82-12.84,36.37,36.37,0,0,0-35.16-.06,33.21,33.21,0,0,0-9.36,8.21v-34H550.84v92.4h30.48v-10.7a32.59,32.59,0,0,0,26.76,12.86,33.72,33.72,0,0,0,17.76-4.56,31.39,31.39,0,0,0,11.82-12.84A45.67,45.67,0,0,0,637.66,303.38Zm-28.08,26.34a12.41,12.41,0,0,1-4.56,4.86,12.74,12.74,0,0,1-6.78,1.8,17.44,17.44,0,0,1-7.68-1.8,20.89,20.89,0,0,1-6.48-4.86,18.23,18.23,0,0,1-4-7,18.77,18.77,0,0,1,4-7.08,20.48,20.48,0,0,1,6.48-4.92,17.44,17.44,0,0,1,7.68-1.8,12.74,12.74,0,0,1,6.78,1.8,12.3,12.3,0,0,1,4.56,4.92,15.14,15.14,0,0,1,1.62,7.08A14.78,14.78,0,0,1,609.58,329.72Z"/></svg>