<?xml version="1.0" encoding="utf-8"?>
<!-- Generator: Adobe Illustrator 19.2.1, SVG Export Plug-In . SVG Version: 6.00 Build 0)  -->
<svg version="1.1" id="Layer_1" xmlns="http://www.w3.org/2000/svg" xmlns:xlink="http://www.w3.org/1999/xlink" x="0px" y="0px"
	 viewBox="0 0 800 400" style="enable-background:new 0 0 800 400;" xml:space="preserve">
<style type="text/css">
	.st0{fill:none;stroke:#93D3CC;stroke-width:3;stroke-miterlimit:10;}
	.st1{fill:#93D3CC;}
	.st2{fill:#FFFFFF;}
</style>
<g>
	<polygon class="st0" points="200.4,46.3 180.7,125.9 156.1,46.3 113.3,46.3 88.9,125.7 69.1,46.3 25.6,46.3 59.1,165.3 
		111.8,165.3 134.7,93.6 157.6,165.3 210.3,165.3 243.8,46.3 	"/>
	<path class="st0" d="M366.1,74.1h-41.9l-2.2,15.6c-3.8-5.2-8.3-9.4-13.6-12.5c-6.7-4-14.4-6-23.1-6c-8.9,0-16.7,2-23.4,6
		c-6.7,4-12,9.7-15.7,17c-3.8,7.3-5.6,15.8-5.6,25.6c0,9.6,1.9,18.1,5.6,25.4c3.8,7.3,9,13,15.7,17c6.7,4,14.5,6,23.4,6
		c8.7,0,16.4-2,23.1-6c5.3-3.2,9.8-7.4,13.5-12.6l2.3,15.8h41.9l-6.4-45.7L366.1,74.1z M317.1,129.1c-2.5,2.7-5.4,4.8-8.7,6.4
		c-3.3,1.6-6.7,2.4-10.2,2.4c-3.4,0-6.4-0.8-9-2.4c-2.6-1.6-4.6-3.7-6-6.4c-1.4-2.7-2.1-5.8-2.1-9.3c0-3.5,0.7-6.6,2.1-9.4
		c1.4-2.8,3.4-4.9,6-6.5c2.6-1.6,5.6-2.4,9-2.4c3.5,0,6.9,0.8,10.2,2.4c3.3,1.6,6.2,3.8,8.7,6.5c2.5,2.8,4.2,5.9,5.2,9.4
		C321.3,123.3,319.6,126.4,317.1,129.1z"/>
	<path class="st0" d="M456.1,71.4c-1.7-0.2-3.3-0.2-4.9-0.2c-6.4,0-11.6,1.4-15.9,4.1c-4.2,2.8-7.7,6.5-10.5,11.2
		c-1.9,3.3-3.6,7-5,10.9l-3.9-23.4h-41.3l6.4,31.8v59.5h40.3v-35.1c0-6.9,1.1-12.2,3.3-15.9c2.2-3.7,5-6.3,8.5-7.7
		c3.5-1.4,7.3-2.1,11.3-2.1c2.2,0,4.8,0.1,7.6,0.4c2.9,0.3,6.1,0.7,9.7,1.4V72.1C459.6,71.8,457.8,71.6,456.1,71.4z"/>
	<path class="st0" d="M562.3,168.2c-12.1,0-22.6-2-31.7-6c-9.1-4-16.1-9.7-21.1-17c-5-7.3-7.5-15.8-7.5-25.4
		c0-9.7,2.5-18.3,7.5-25.6c5-7.3,12.1-13,21.1-17c9.1-4,19.6-6,31.7-6c12.1,0,22.6,2,31.7,6c9.1,4,16.1,9.7,21.1,17
		c5,7.3,7.5,15.8,7.5,25.6c0,9.6-2.5,18.1-7.5,25.4c-5,7.3-12.1,13-21.1,17C584.9,166.2,574.4,168.2,562.3,168.2z M562.3,138.8
		c4.2,0,7.8-0.7,10.7-2.2c2.9-1.5,5.1-3.7,6.7-6.5c1.5-2.9,2.3-6.3,2.3-10.3c0-4.1-0.8-7.6-2.3-10.5c-1.5-2.9-3.8-5-6.7-6.5
		c-2.9-1.5-6.5-2.2-10.7-2.2c-4.1,0-7.7,0.7-10.6,2.2c-3,1.5-5.2,3.7-6.7,6.5c-1.5,2.9-2.3,6.3-2.3,10.3c0,4.1,0.8,7.6,2.3,10.5
		c1.5,2.9,3.8,5,6.7,6.5C554.6,138.1,558.2,138.8,562.3,138.8z"/>
	<path class="st0" d="M691.4,72.8c2.1-2,6.5-3,13.2-3c3.6,0,7.1,0.3,10.4,0.8c3.3,0.5,6.6,1.2,9.9,2.1V43.7c-4.6-1.2-8.7-2-12.5-2.6
		c-3.8-0.6-8-0.9-12.7-0.9c-11,0-20.4,1.6-28.1,4.8c-7.7,3.2-13.6,8-17.6,14.4c-3.9,6.2-5.9,13.8-6,22.9h-18v29.4h17.9v53.5h40.3
		v-53.5h34.1V82.5h-34.1V82C688.2,77.9,689.3,74.8,691.4,72.8z"/>
</g>
<g>
	<path class="st1" d="M335.8,223.7c-1.3,10.9-5,20.4-11.2,28.6c-6.2,8.2-14.4,14.5-24.5,19.1c-10.2,4.6-21.8,6.8-34.9,6.8
		c-14.2,0-26.6-2.6-37.2-7.8c-10.6-5.2-18.8-12.5-24.7-21.8c-5.9-9.4-8.8-20.3-8.8-32.8c0-12.5,2.9-23.4,8.8-32.8
		c5.9-9.4,14.1-16.6,24.7-21.8c10.6-5.2,23-7.8,37.2-7.8c13.1,0,24.8,2.3,34.9,6.8c10.2,4.6,18.3,10.9,24.5,19.1
		c6.2,8.2,9.9,17.7,11.2,28.6h-41.1c-1-4.1-2.7-7.6-5.2-10.6c-2.5-2.9-5.8-5.1-9.9-6.7c-4.1-1.5-8.9-2.3-14.4-2.3
		c-6.1,0-11.4,1.1-15.8,3.3c-4.4,2.2-7.8,5.3-10.1,9.4c-2.3,4.1-3.5,9.1-3.5,14.8c0,5.7,1.2,10.6,3.5,14.7c2.3,4.1,5.7,7.2,10.1,9.4
		c4.4,2.2,9.7,3.3,15.8,3.3c5.5,0,10.3-0.7,14.4-2.1c4.1-1.4,7.4-3.6,9.9-6.5c2.5-2.9,4.3-6.5,5.2-10.9H335.8z"/>
	<path class="st1" d="M403.6,278.1c-12.1,0-22.6-2-31.7-6c-9.1-4-16.1-9.7-21.1-17c-5-7.3-7.5-15.8-7.5-25.4
		c0-9.7,2.5-18.3,7.5-25.6c5-7.3,12.1-13,21.1-17c9.1-4,19.6-6,31.7-6c12.1,0,22.6,2,31.7,6c9.1,4,16.1,9.7,21.1,17
		c5,7.3,7.5,15.8,7.5,25.6c0,9.6-2.5,18.1-7.5,25.4c-5,7.3-12.1,13-21.1,17C426.3,276.1,415.7,278.1,403.6,278.1z M403.6,248.8
		c4.2,0,7.8-0.7,10.7-2.2c2.9-1.5,5.1-3.7,6.7-6.5c1.5-2.9,2.3-6.3,2.3-10.3c0-4.1-0.8-7.6-2.3-10.5c-1.5-2.9-3.8-5-6.7-6.5
		c-2.9-1.5-6.5-2.2-10.7-2.2c-4.1,0-7.7,0.7-10.6,2.2c-3,1.5-5.2,3.7-6.7,6.5c-1.5,2.9-2.3,6.3-2.3,10.3c0,4.1,0.8,7.6,2.3,10.5
		c1.5,2.9,3.8,5,6.7,6.5C396,248,399.5,248.8,403.6,248.8z"/>
	<path class="st1" d="M495.7,177.3c-6.8,0-12.2-1.6-16.4-4.9c-4.1-3.3-6.2-7.8-6.2-13.5s2.1-10.2,6.2-13.5c4.1-3.3,9.6-4.9,16.4-4.9
		c6.9,0,12.4,1.6,16.4,4.9c4.1,3.3,6.1,7.8,6.1,13.5s-2,10.2-6.1,13.5C508.1,175.7,502.6,177.3,495.7,177.3z M475.6,182.1l20.2,4.1
		l20.2-4.1v93.2h-40.3V182.1z"/>
	<path class="st1" d="M526.8,184h40.3l6.4,38.9v52.4h-40.3v-58.6L526.8,184z M605.1,181.1c8.9,0,16.5,1.8,22.7,5.3
		c6.2,3.5,11,8.5,14.4,14.9c3.3,6.4,5,13.9,5,22.5v51.4h-40.3v-45.7c0-5.1-1.4-9-4.2-11.7c-2.8-2.8-6.7-4.1-11.8-4.1
		c-3.6,0-6.7,0.7-9.3,2.1c-2.6,1.4-4.6,3.5-6,6.2c-1.4,2.7-2.1,6-2.1,9.8l-11.9-6c1.5-9.9,4.3-18.2,8.6-24.8
		c4.2-6.6,9.4-11.6,15.4-14.8C591.6,182.8,598.1,181.1,605.1,181.1z"/>
	<path class="st1" d="M774.4,244.2c0,7.6-2.4,13.9-7.1,19c-4.8,5-11.4,8.8-19.9,11.3c-8.5,2.5-18.5,3.7-29.9,3.7
		c-11.7,0-22.1-1.4-31-4.2c-8.9-2.8-16-6.7-21.1-11.7c-5.1-5-7.9-10.9-8.2-17.5h41c0.7,1.8,2,3.3,3.8,4.5c1.8,1.2,4.2,2.1,7.1,2.7
		c2.9,0.6,6.5,0.9,10.7,0.9c5.1,0,8.9-0.4,11.6-1.1c2.6-0.7,4-1.8,4-3.2c0-1.6-1.1-2.7-3.3-3.4c-2.2-0.7-5.8-1.2-10.8-1.5l-14.9-1
		c-11.5-0.7-20.7-2.3-27.5-4.7c-6.8-2.4-11.7-5.6-14.7-9.8c-3-4.1-4.4-9.1-4.4-14.8c0-7.3,2.3-13.3,6.9-18.1
		c4.6-4.8,11-8.3,19.3-10.6c8.3-2.3,17.9-3.5,28.9-3.5c10.8,0,20.4,1.3,28.7,4c8.4,2.7,15.1,6.4,20.2,11.2c5.1,4.8,8,10.4,8.9,16.8
		h-41c-0.5-1.7-1.6-3.1-3.2-4.4c-1.6-1.2-3.7-2.2-6.2-2.9c-2.5-0.7-5.6-1-9.2-1c-4.9,0-8.4,0.4-10.6,1.2c-2.2,0.8-3.3,1.9-3.3,3.3
		c0,1.6,0.7,2.7,2.1,3.3c1.4,0.6,4.1,1.1,8.1,1.3l20,1.3c11.4,0.6,20.5,2.1,27.1,4.5c6.6,2.4,11.3,5.6,14.1,9.6
		C773,233.4,774.4,238.3,774.4,244.2z"/>
</g>
<g>
	<path class="st2" d="M403.6,317.7c-1,8.2-3.8,15.4-8.5,21.6c-4.7,6.2-10.9,11-18.5,14.4c-7.7,3.4-16.5,5.2-26.4,5.2
		c-10.7,0-20.1-2-28.1-5.9c-8-3.9-14.2-9.4-18.7-16.5s-6.7-15.3-6.7-24.8c0-9.4,2.2-17.7,6.7-24.8s10.7-12.6,18.7-16.5
		c8-3.9,17.4-5.9,28.1-5.9c9.9,0,18.7,1.7,26.4,5.2c7.7,3.4,13.9,8.2,18.5,14.4c4.7,6.2,7.5,13.4,8.5,21.6h-31.1c-0.7-3.1-2-5.8-4-8
		c-1.9-2.2-4.4-3.9-7.5-5c-3.1-1.2-6.7-1.7-10.9-1.7c-4.6,0-8.6,0.8-11.9,2.5c-3.3,1.6-5.9,4-7.6,7.1c-1.8,3.1-2.6,6.8-2.6,11.2
		s0.9,8,2.6,11.1c1.8,3.1,4.3,5.5,7.6,7.1c3.3,1.7,7.3,2.5,11.9,2.5c4.2,0,7.8-0.5,10.9-1.6c3.1-1.1,5.6-2.7,7.5-4.9
		c1.9-2.2,3.2-4.9,4-8.2H403.6z"/>
	<path class="st2" d="M412,264.3h30.5v92.4H412V264.3z"/>
	<path class="st2" d="M542.6,356.7l-4.8-24.7v-44.3h-30.5v32.9c0,3-0.5,5.5-1.4,7.5c-0.9,2-2.3,3.6-4.1,4.6c-1.8,1-4.1,1.5-6.9,1.5
		c-3.6,0-6.4-1-8.3-3.1c-2-2.1-2.9-5-2.9-8.8v-34.6h-30.5v38.9c0,6.4,1.2,12,3.7,16.9c2.4,4.8,6,8.6,10.6,11.3
		c4.6,2.7,10.2,4,16.7,4c5.2,0,10-1.2,14.5-3.7c4.4-2.5,8.2-6.2,11.4-11.2l2.1,12.9H542.6z"/>
	<path class="st2" d="M637.7,302.9c-2.8-5.5-6.8-9.8-11.8-12.8c-5-3-11-4.6-17.8-4.6c-6.5,0-12.3,1.5-17.4,4.5
		c-3.6,2.1-6.7,4.9-9.4,8.2v-34h-30.5v92.4h30.5V346c2.6,3.4,5.7,6.1,9.3,8.3c5.1,3,10.9,4.6,17.5,4.6c6.8,0,12.7-1.5,17.8-4.6
		c5-3,9-7.3,11.8-12.8c2.8-5.5,4.3-11.9,4.3-19.2C641.9,314.9,640.5,308.4,637.7,302.9z M609.6,329.3c-1.1,2-2.6,3.7-4.6,4.9
		c-2,1.2-4.2,1.8-6.8,1.8c-2.6,0-5.2-0.6-7.7-1.8c-2.5-1.2-4.6-2.8-6.5-4.9c-1.8-2-3.2-4.4-4-7c0.8-2.6,2.1-5,4-7.1
		c1.8-2.1,4-3.7,6.5-4.9c2.5-1.2,5-1.8,7.7-1.8c2.6,0,4.8,0.6,6.8,1.8c2,1.2,3.5,2.8,4.6,4.9c1.1,2.1,1.6,4.4,1.6,7.1
		C611.2,324.9,610.7,327.2,609.6,329.3z"/>
</g>
</svg>
