<?xml version="1.0" encoding="UTF-8" standalone="no"?><svg id="Layer_1" data-name="Layer 1" xmlns="http://www.w3.org/2000/svg" viewBox="0 0 1000 1000"><defs><style>.cls-1{fill:#22404d;}.cls-2{fill:#deb325;}.cls-3{fill:#93d3cc;}.cls-4{fill:none;stroke:#93d3cc;stroke-miterlimit:10;stroke-width:10px;}</style></defs><title>WarofCoins LOGO</title><rect class="cls-1" width="1000" height="1000"/><circle class="cls-1" cx="500" cy="500" r="500"/><path class="cls-2" d="M572.21,782.82s35.65-63.29,59.06-79.33C670.12,676.86,827.1,575.76,827.1,575.76s-24.87,77.31-88.33,125.39C700.41,730.22,572.21,782.82,572.21,782.82Z"/><path class="cls-2" d="M534.91,836.19c1.34-.43,22.11-37.88,37.47-42.52,45.95-13.88,194.51-90.76,194.51-90.76s-44.62,76-83,96.84C650.67,817.78,534.91,836.19,534.91,836.19Z"/><path class="cls-2" d="M631.27,692.23S683.49,607.41,702,587.65c32-34.17,168.27-179.3,168.27-179.3s20.28,103.32-43.17,151.4C788.73,588.82,631.27,692.23,631.27,692.23Z"/><path class="cls-2" d="M427.18,782.82s-35.65-63.29-59.06-79.33c-38.85-26.63-195.82-127.73-195.82-127.73s24.87,77.31,88.33,125.39C299,730.22,427.18,782.82,427.18,782.82Z"/><path class="cls-2" d="M464.48,836.19c-1.34-.43-22.11-37.88-37.47-42.52C381.06,779.78,232.5,702.9,232.5,702.9s44.62,76,83,96.84C348.72,817.78,464.48,836.19,464.48,836.19Z"/><path class="cls-2" d="M368.12,692.23S315.9,607.41,297.4,587.65c-32-34.17-168.27-179.3-168.27-179.3s-20.28,103.32,43.17,151.4C210.66,588.82,368.12,692.23,368.12,692.23Z"/><polygon class="cls-3" points="499.69 156.48 233.45 307.11 279.44 487.03 396.48 548.34 396.48 395.48 418 395.48 418 357.48 436.5 357.48 436.5 395.48 458.02 395.48 458.02 580.57 469.23 586.45 469.23 290.81 490.75 290.81 490.75 234.98 509.25 234.98 509.25 290.81 530.77 290.81 530.77 586.88 541.98 580.98 541.98 345.48 563.5 345.48 563.5 309.48 582 309.48 582 345.48 603.52 345.48 603.52 548.61 720.56 487.03 765.94 307.11 499.69 156.48"/><polygon class="cls-4" points="598.93 580.29 598.93 628.69 576.76 628.69 576.76 665.14 568.33 665.14 568.33 628.69 546.16 628.69 546.16 616.41 526.38 629.95 526.38 682.56 504.21 682.56 504.21 713.14 495.79 713.14 495.79 682.56 473.62 682.56 473.62 629.95 453.84 616.41 453.84 643.23 431.67 643.23 431.67 670.36 423.24 670.36 423.24 643.23 401.07 643.23 401.07 580.29 300.22 530.44 500 843.52 699.78 530.44 598.93 580.29"/></svg>